/* XPM */
static char *afp___[] = {
/* columns rows colors chars-per-pixel */
"48 48 115 2",
"   c #000002",
".  c #03030B",
"X  c #060612",
"o  c #05051B",
"O  c #08081A",
"+  c #11111F",
"@  c #0C0C23",
"#  c #0D0D2C",
"$  c #131324",
"%  c #19192B",
"&  c #0F0F34",
"*  c #101035",
"=  c #1F1F34",
"-  c #12123B",
";  c #242434",
":  c #2A2A34",
">  c #232338",
",  c #2C2C3A",
"<  c #34343E",
"1  c #0C0C41",
"2  c #0F0F4B",
"3  c #141444",
"4  c #13134C",
"5  c #19194C",
"6  c #141453",
"7  c #191954",
"8  c #16165A",
"9  c #1A1A5C",
"0  c #373744",
"q  c #3A3A44",
"w  c #1B1B62",
"e  c #1D1D6A",
"r  c #22226B",
"t  c #33336C",
"y  c #232374",
"u  c #25257C",
"i  c #29297D",
"p  c #35357B",
"a  c #404048",
"s  c #444451",
"d  c #4D4D57",
"f  c #4F4F5D",
"g  c #505057",
"h  c #54545B",
"j  c #5C5C62",
"k  c #646469",
"l  c #6D6D73",
"z  c #717177",
"x  c #78787D",
"c  c #272781",
"v  c #2A2A85",
"b  c #2C2C8B",
"n  c #33338A",
"m  c #3A3A8C",
"M  c #2F2F91",
"N  c #313195",
"B  c #3E3E90",
"V  c #323299",
"C  c #43438F",
"Z  c #424292",
"A  c #4C4C97",
"S  c #4F4F9A",
"D  c #585897",
"F  c #50509A",
"G  c #5C5C9D",
"H  c #7B7B80",
"J  c #5E5EA0",
"K  c #6565A4",
"L  c #6B6BA6",
"P  c #6D6DAA",
"I  c #7171AA",
"U  c #7979AD",
"Y  c #7676B0",
"T  c #7C7CB0",
"R  c #808085",
"E  c #86868A",
"W  c #8B8B8F",
"Q  c #8E8E93",
"!  c #939397",
"~  c #96969A",
"^  c #99999D",
"/  c #8282B4",
"(  c #8989B6",
")  c #8F8FBC",
"_  c #A1A1A5",
"`  c #A5A5A9",
"'  c #A8A8AC",
"]  c #A0A0B1",
"[  c #ADADB2",
"{  c #B1B1B7",
"}  c #9797C0",
"|  c #A2A2C4",
" . c #A5A5C8",
".. c #ADADCB",
"X. c #B4B4CF",
"o. c #B5B5D0",
"O. c #BBBBD4",
"+. c #C1C1C5",
"@. c #CECED1",
"#. c #C6C6DB",
"$. c #CBCBDD",
"%. c #D2D2D5",
"&. c #D5D5DB",
"*. c #D9D9DC",
"=. c #D2D2E0",
"-. c #D9D9E5",
";. c #DEDEE8",
":. c #E2E2E4",
">. c #E4E4ED",
",. c #EAEAEB",
"<. c #EBEBF1",
"1. c #F4F4F5",
"2. c #F6F6F8",
"3. c #FDFDFD",
"4. c None",
/* pixels */
"4.4.4.4.4.4.4.4.4.4.4.4.4.4.4.4.4.4.4.4.4.4.4.4.4.4.4.4.4.4.4.4.4.4.4.4.4.4.4.4.4.4.4.4.4.4.4.4.",
"4.4.4.4.4.4.4.4.4.4.4.4.4.4.4.4.4.4.4.4.4.4.4.4.4.4.4.4.4.4.4.4.4.4.4.4.4.4.4.4.4.4.4.4.4.4.4.4.",
"4.4.4.4.4.4.4.4.4.4.4.4.4.4.4.4.4.4.4.4.4.4.4.4.4.4.4.4.4.4.4.4.4.4.4.4.4.4.4.4.4.4.4.4.4.4.4.4.",
"4.4.4.4.4.4.4.4.4.4.4.4.4.4.4.4.4.4.4.4.4.4.4.4.4.4.4.4.4.4.4.4.4.4.4.4.4.4.4.4.4.4.4.4.4.4.4.4.",
"4.4.4.4.4.4.4.4.4.4.4.4.4.4.4.4.4.4.4.4.4.4.4.V N 4.4.4.4.4.4.4.4.4.4.4.4.4.4.4.4.4.4.4.4.4.4.4.",
"4.4.4.4.4.4.4.4.4.4.4.4.4.4.4.4.4.4.4.4.4.4.4.V V 4.4.4.4.4.4.4.4.4.4.4.4.4.4.4.4.4.4.4.4.4.4.4.",
"4.4.4.4.4.4.4.4.4.4.4.4.4.4.4.4.4.4.4.4.4.4.N V V N 4.4.4.4.4.4.4.4.4.4.4.4.4.4.4.4.4.4.4.4.4.4.",
"4.4.4.4.4.4.4.4.4.4.4.4.4.4.4.4.4.4.4.4.4.4.V N N V N 4.4.4.4.4.4.4.4.4.4.4.4.4.4.4.4.4.4.4.4.4.",
"4.4.4.4.4.4.4.4.4.4.4.4.4.4.4.4.4.4.4.4.4.V V V V V V 4.4.4.4.4.4.4.4.4.4.4.4.4.4.4.4.4.4.4.4.4.",
"4.4.4.4.4.4.4.4.4.4.4.4.4.4.4.4.4.4.4.4.V V V N b V V N 4.4.4.4.4.4.4.4.4.4.4.4.4.4.4.4.4.4.4.4.",
"4.4.4.4.4.4.4.4.4.4.4.4.4.4.4.4.4.4.4.4.N V V - * V V N 4.4.4.4.4.4.4.4.4.4.4.4.4.4.4.4.4.4.4.4.",
"4.4.4.4.4.4.4.4.4.4.4.4.4.4.4.4.4.4.4.N V V i . . y V V N 4.4.4.4.4.4.4.4.4.4.4.4.4.4.4.4.4.4.4.",
"4.4.4.4.4.4.4.4.4.4.4.4.4.4.4.4.4.4.4.V V N - 4.4.* N V V 4.4.4.4.4.4.4.4.4.4.4.4.4.4.4.4.4.4.4.",
"4.4.4.4.4.4.4.4.4.4.4.4.M b M b b N N N V v . 4.4.  y V V N 4.4.4.4.4.4.4.4.4.4.4.4.4.4.4.4.4.4.",
"4.4.4.4.4.4.4.4.b b b v F Y / / I F v b b 9 4.4.4.4.O V V V N 4.4.4.4.4.4.4.4.4.4.4.4.4.4.4.4.4.",
"4.4.4.4.4.4.b b b K O.3.3.3.3.3.3.3.3.O.K i b n 4.4.  7 V V N 4.4.4.4.4.4.4.4.4.4.4.b b b b 4.4.",
"4.4.4.4.4.b m U ;.3.3.@.' ~ H E ^ [ @.2.3.>.T B b 4.4.X b V V N 4.4.4.4.4.4.4.4.4.v m ..X.u 4.4.",
"4.4.4.4.v D $.3.2.E q ; & - 3 - - # ; q H 1.3.=.K v b 5 5 V V V 4.4.4.4.4.4.4.4.b m &.3.] y e 4.",
"4.4.4.v L 3.3.` @ * 4 6 6 6 6 6 8 6 6 6 - $ _ 3.3./ i v 9 b V N N 4.4.4.4.M b c I 2.3.^ 3 e 8 4.",
"4.4.u D 3.<.j & 7 7 6 2 4.4.4.v c y 4 4 8 7 * h -.3.,.I Z i b M M M b b b Z G $.3.,.R * 9 8 4.4.",
"4.4.y t _ s 3 w 8 4.4.4.4.4.V V V v   4.4.6 8 4 ; R 2.3.>.O. .U L K P } X.-.3.3.` 0 - 8 8 4.4.4.",
"4.4.w 7 3 6 9 2 4.4.4.4.4.4.V V N @ 4.4.4.4.2 8 6 - % l ,.3.3.3.3.2.3.3.3.2.! $ * 6 8 6 4.4.4.4.",
"4.4.4.6 8 6 4.4.4.4.4.4.4.M V V r . 4.4.4.4.4.4.6 8 6 3 @ $ k x ! _ z k < O - 6 7 6 4.4.4.4.4.4.",
"4.4.4.4.4.4.4.4.4.4.4.4.M M M n 7 4.4.4.4.4.4.4.4.4.6 6 6 6 3 - & - - 3 6 7 6 6 2 4.4.4.4.4.4.4.",
"4.4.4.4.4.4.4.4.4.4.b b b b b v u b v b b 4.4.4.4.4.4.4.2 2 6 2 8 8 8 8 6 2 4.4.4.4.4.4.4.4.4.4.",
"4.4.4.4.4.4.4.b v n Z } #.3.3.3.3.2.X./ m b b 4.4.4.4.4.4.4.4.4.i v v - 4.4.4.4.4.4.4.b b b 4.4.",
"4.4.4.4.4.4.b B / $.3.3.:.%.{ { +.&.2.3.3.O.L v b 4.4.4.4.4.4.M V V i . 4.4.4.4.4.4.b G ) b c 4.",
"4.4.4.4.b c T ;.3.3.~ a ; ; # # % ; , g [ 3.3.$.S v b 4.4.4.4.V V N - 4.4.4.4.4.b v J <.3.p y 4.",
"4.4.4.b b | 3.2.^ $ & 4 6 6 6 6 8 6 6 3 # , %.3.2.L c b 4.4.N V N i   4.4.4.4.b v ( 3.3.f 9 e 4.",
"4.4.u c X.3.&.q - 6 8 6 4 1 # y y w 8 6 7 6 # x ,.3.o.J m b M M N 5 y 4.b b B K $.3.*.f 4 w 6 4.",
"4.4.y e &.' ; 4 8 6 4.4.4.4.4.7 N N b 4.2 6 7 3 , ` 3.3.$.| L A v i b A I ..=.3.3.Q , 3 8 6 4.4.",
"4.4.7 r - - 7 8 2 4.4.4.4.4.4.. b V V M 4.4.6 8 6 & : +.3.3.3.2.2.2.2.2.3.3.3._ ; - 7 8 4 4.4.4.",
"4.4.4.8 7 8 6 4.4.4.4.4.4.4.4.4.5 N V V 4.4.4.4.6 8 4 & % l ' %.&.*.&.@.` j @ & 6 7 6 4.4.4.4.4.",
"4.4.4.4.2 2 4.4.4.4.4.4.4.4.4.4.. n N V N 4.4.4.4.4 6 8 6 3 # # @ $ @ # - 3 6 7 8 2 4.4.4.4.4.4.",
"4.4.4.4.4.4.4.4.4.4.4.4.4.4.4.4.4.- N V V 4.4.4.4.4.4.y w 8 6 6 6 6 4 6 6 2 4 4.4.4.4.4.4.4.4.4.",
"4.4.4.4.4.4.4.4.4.4.4.4.4.4.4.4.4.  y V V N 4.4.4.4.M M N y o 4.4.4.4.4.4.4.4.4.4.4.4.4.4.4.4.4.",
"4.4.4.4.4.4.4.4.4.4.4.4.4.4.4.4.4.4.O V V N 4.4.4.4.N V V @ 4.4.4.4.4.4.4.4.4.4.4.4.4.4.4.4.4.4.",
"4.4.4.4.4.4.4.4.4.4.4.4.4.4.4.4.4.4.4.r V V N 4.4.M V V r 4.4.4.4.4.4.4.4.4.4.4.4.4.4.4.4.4.4.4.",
"4.4.4.4.4.4.4.4.4.4.4.4.4.4.4.4.4.4.4.@ N N V n 4.V V N # 4.4.4.4.4.4.4.4.4.4.4.4.4.4.4.4.4.4.4.",
"4.4.4.4.4.4.4.4.4.4.4.4.4.4.4.4.4.4.4.4.9 V V N N V V r 4.4.4.4.4.4.4.4.4.4.4.4.4.4.4.4.4.4.4.4.",
"4.4.4.4.4.4.4.4.4.4.4.4.4.4.4.4.4.4.4.4.  N V V V V V X 4.4.4.4.4.4.4.4.4.4.4.4.4.4.4.4.4.4.4.4.",
"4.4.4.4.4.4.4.4.4.4.4.4.4.4.4.4.4.4.4.4.4.- V V V V 3 4.4.4.4.4.4.4.4.4.4.4.4.4.4.4.4.4.4.4.4.4.",
"4.4.4.4.4.4.4.4.4.4.4.4.4.4.4.4.4.4.4.4.4.. i V V v X 4.4.4.4.4.4.4.4.4.4.4.4.4.4.4.4.4.4.4.4.4.",
"4.4.4.4.4.4.4.4.4.4.4.4.4.4.4.4.4.4.4.4.4.4.- V N 3 4.4.4.4.4.4.4.4.4.4.4.4.4.4.4.4.4.4.4.4.4.4.",
"4.4.4.4.4.4.4.4.4.4.4.4.4.4.4.4.4.4.4.4.4.4.  i v   4.4.4.4.4.4.4.4.4.4.4.4.4.4.4.4.4.4.4.4.4.4.",
"4.4.4.4.4.4.4.4.4.4.4.4.4.4.4.4.4.4.4.4.4.4.4.@ * 4.4.4.4.4.4.4.4.4.4.4.4.4.4.4.4.4.4.4.4.4.4.4.",
"4.4.4.4.4.4.4.4.4.4.4.4.4.4.4.4.4.4.4.4.4.4.4.4.  4.4.4.4.4.4.4.4.4.4.4.4.4.4.4.4.4.4.4.4.4.4.4.",
"4.4.4.4.4.4.4.4.4.4.4.4.4.4.4.4.4.4.4.4.4.4.4.4.4.4.4.4.4.4.4.4.4.4.4.4.4.4.4.4.4.4.4.4.4.4.4.4."
};
