/* XPM */
static char *afp___[] = {
/* columns rows colors chars-per-pixel */
"64 64 78 1",
"  c #000000",
". c #04040C",
"X c #060614",
"o c #07071C",
"O c #09091D",
"+ c #0A0A24",
"@ c #0E0E2D",
"# c #111134",
"$ c #13133B",
"% c #151542",
"& c #16164C",
"* c #18184A",
"= c #171750",
"- c #1A1A55",
"; c #1B1B5C",
": c #25255D",
"> c #28285E",
", c #1D1D64",
"< c #1F1F6D",
"1 c #1F1F71",
"2 c #222263",
"3 c #2B2B64",
"4 c #20206D",
"5 c #28286D",
"6 c #343463",
"7 c #3A3A65",
"8 c #34346B",
"9 c #3D3D6C",
"0 c #222274",
"q c #232379",
"w c #29297D",
"e c #44446D",
"r c #48486F",
"t c #454573",
"y c #4B4B75",
"u c #535373",
"i c #52527D",
"p c #59597C",
"a c #272781",
"s c #2A2A85",
"d c #2C2C8C",
"f c #2F2F93",
"g c #313196",
"h c #323298",
"j c #5D5D81",
"k c #636384",
"l c #646489",
"z c #6B6B8A",
"x c #71718E",
"c c #747490",
"v c #7A7A94",
"b c #84849C",
"n c #89899E",
"m c #8585A1",
"M c #8C8CA0",
"N c #9393A5",
"B c #9696A8",
"V c #9999AB",
"C c #A5A5B5",
"Z c #A8A8B6",
"A c #AAAABA",
"S c #B1B1BD",
"D c #B5B5C1",
"F c #BABAC5",
"G c #C3C3CC",
"H c #CCCCD4",
"J c #D0D0D6",
"K c #D5D5DA",
"L c #D8D8DE",
"P c #DDDDE1",
"I c #E3E3E6",
"U c #E7E7E9",
"Y c #EAEAED",
"T c #EEEEF0",
"R c #F4F4F5",
"E c #F7F7F8",
"W c #FEFEFE",
"Q c None",
/* pixels */
"QQQQQQQQQQQQQQQQQQQQQQQQQQQQQQQQQQQQQQQQQQQQQQQQQQQQQQQQQQQQQQQQ",
"QQQQQQQQQQQQQQQQQQQQQQQQQQQQQQQQQQQQQQQQQQQQQQQQQQQQQQQQQQQQQQQQ",
"QQQQQQQQQQQQQQQQQQQQQQQQQQQQQQQQQQQQQQQQQQQQQQQQQQQQQQQQQQQQQQQQ",
"QQQQQQQQQQQQQQQQQQQQQQQQQQQQQQQQQQQQQQQQQQQQQQQQQQQQQQQQQQQQQQQQ",
"QQQQQQQQQQQQQQQQQQQQQQQQQQQQQQQQQQQQQQQQQQQQQQQQQQQQQQQQQQQQQQQQ",
"QQQQQQQQQQQQQQQQQQQQQQQQQQQQQQQggQQQQQQQQQQQQQQQQQQQQQQQQQQQQQQQ",
"QQQQQQQQQQQQQQQQQQQQQQQQQQQQQQQhhQQQQQQQQQQQQQQQQQQQQQQQQQQQQQQQ",
"QQQQQQQQQQQQQQQQQQQQQQQQQQQQQQhghhQQQQQQQQQQQQQQQQQQQQQQQQQQQQQQ",
"QQQQQQQQQQQQQQQQQQQQQQQQQQQQQhhhhhgQQQQQQQQQQQQQQQQQQQQQQQQQQQQQ",
"QQQQQQQQQQQQQQQQQQQQQQQQQQQQQhhhhhhQQQQQQQQQQQQQQQQQQQQQQQQQQQQQ",
"QQQQQQQQQQQQQQQQQQQQQQQQQQQQghhhhhhgQQQQQQQQQQQQQQQQQQQQQQQQQQQQ",
"QQQQQQQQQQQQQQQQQQQQQQQQQQQQhhhhhhhgQQQQQQQQQQQQQQQQQQQQQQQQQQQQ",
"QQQQQQQQQQQQQQQQQQQQQQQQQQQghhhhghhhgQQQQQQQQQQQQQQQQQQQQQQQQQQQ",
"QQQQQQQQQQQQQQQQQQQQQQQQQQQghhh;%hhhhQQQQQQQQQQQQQQQQQQQQQQQQQQQ",
"QQQQQQQQQQQQQQQQQQQQQQQQQQghhhh  fghhhQQQQQQQQQQQQQQQQQQQQQQQQQQ",
"QQQQQQQQQQQQQQQQQQQQQQQQQQhhhh%QQ#ghhhgQQQQQQQQQQQQQQQQQQQQQQQQQ",
"QQQQQQQQQQQQQQQQQQQQQQQQQgghhg QQ whhhhQQQQQQQQQQQQQQQQQQQQQQQQQ",
"QQQQQQQQQQQQQQQQQQQQQQQQgghhg@QQQQOhhghgQQQQQQQQQQQQQQQQQQQQQQQQ",
"QQQQQQQQQQQQQQQQ<<10<010wsdg5 QQQQ 2ghhhQQQQQQQQQQQQQQQQQQQQQQQQ",
"QQQQQQQQQQQQQ100qq0q00q0qqqq%QQQQQQ hhhhgQQQQQQQQQQQQQQQQQQQQQQQ",
"QQQQQQQQQQ<00q0,2ilxvxjy3<0000<QQQQQ*ghhhQQQQQQQQQQQQQQQQ111<QQQ",
"QQQQQQQQ<0q0,tBYWWWWWWWWWWMt,0q0<QQQ ghhhgQQQQQQQQQQQQQQ0q0qq<QQ",
"QQQQQQQ100,kWWWWWWRUIYWWWWWWYz,001QQQ$hhhhgQQQQQQQQQQQQ0q,Mi00QQ",
"QQQQQQ0q<eWWWWYFk;,,,,,-bDYWWWWe4q0<Q shghhQQQQQQQQQQ40q2LWW40QQ",
"QQQQ<q02SWWWKy,0000qqqqqq0,9KWWWF,001-@fhhgfQQQQQQQ<0q0:RWWv00QQ",
"QQQQ002EWWU><q000<QQsdaqq<q0<9UWWW64qq,1sdffQQQQQ<00q,zWWWx400QQ",
"QQQ<q3WWWV,000<QQQQfffhf+Q<00q,CWWWH:<00qqqqq0<00q0,7RWWEy0q1QQQ",
"QQQ0qmWEj400QQQQQQQhhhh2 QQQQ0q47TWWWI72240qq004,3pWWWWK-00<QQQQ",
"QQQ<q<At000QQQQQQQhghhh.QQQQQQ<q0,vRWWWWWUu97euHWWWWWYj<q0<QQQQQ",
"QQQQ10qqq<QQQQQQQQhhhg-QQQQQQQQQ000,zTWWWWWWWWWWWWWR&<q01QQQQQQQ",
"QQQQQ<0<QQQQQQQQQhhhhd QQQQQQQQQQ10qq2-6LRRWWRRTH&;<000<QQQQQQQQ",
"QQQQQQQQQQQQQQQQddddd&QQQQQQQQQQQQQ<1qqq4<<,,2<10qq01<QQQQQQQQQQ",
"QQQQQQQQQQQQQQQ<qqqqq<101<<QQQQQQQQQQQ<1001qqqqq0<<QQQQQQQQQQQQQ",
"QQQQQQQQQQQQ<00qqq0444400qq00<QQQQQQQQQQQQ0ssdd=QQQQQQQQQQQQQQQQ",
"QQQQQQQQQQ40q02,*BYYRRTRv=;<000<QQQQQQQQQQggggd QQQQQQQQQ00q0QQQ",
"QQQQQQQQ<0q4,tYWWWWWWWWWWWWTe,0q0<QQQQQQQghhgh@QQQQQQQQQ000200QQ",
"QQQQQQQ0q0;ARWWWWWWnuvFWWWWWWWv,qq4QQQQQQhghhw QQQQQQQQ0q,HW,0<Q",
"QQQQQQ0q<kWWWERe3<200044,3pTWWWYi400QQQQgghhhXQQQQQQQ100;PWWlq1Q",
"QQQQQ00,JWEWF340q00<qqqq000<3LWWWC,qq1QQggfg,QQQQQQ<000-RWWB4qQQ",
"QQQQ0q-RWWL34q00<QQodddda<00046WWWY:<0qqqasd+QQQ<00q0,bWWWn<q<QQ",
"QQQQ0,WWWM,q00QQQQQQ%ggggdQQ0002CWWWJ:,0qqq0<00q004;vUWWWe001QQQ",
"QQQQq<WWp4q1QQQQQQQQ dhhghQQQ<0047WWWWPA>;,<44<,-zHEWWWA200<QQQQ",
"QQQQ0q480q4QQQQQQQQQQ@hghhgQQQQ100,kWWWWWWIHGGJUWWWWWH90q0<QQQQQ",
"QQQQQ0qq01QQQQQQQQQQQ qhhhgQQQQQ20q0,pAWWWWWWWWWWWUb8<000QQQQQQQ",
"QQQQQQ<<QQQQQQQQQQQQQQXhhhggQQQQQQ10qq0,7zbBVAnxj3<1qq0QQQQQQQQQ",
"QQQQQQQQQQQQQQQQQQQQQQQ2hhghQQQQQQQQaqqqq0000400q0q1<QQQQQQQQQQQ",
"QQQQQQQQQQQQQQQQQQQQQQQ hghggQQQQQQffdds&<1000001<QQQQQQQQQQQQQQ",
"QQQQQQQQQQQQQQQQQQQQQQQQ*hhhhQQQQQQhhhf;QQQQQQQQQQQQQQQQQQQQQQQQ",
"QQQQQQQQQQQQQQQQQQQQQQQQ ghhhhQQQQghhhh QQQQQQQQQQQQQQQQQQQQQQQQ",
"QQQQQQQQQQQQQQQQQQQQQQQQQ#hghhgQQQhhhg&QQQQQQQQQQQQQQQQQQQQQQQQQ",
"QQQQQQQQQQQQQQQQQQQQQQQQQ shhhhQQhhhhg QQQQQQQQQQQQQQQQQQQQQQQQQ",
"QQQQQQQQQQQQQQQQQQQQQQQQQQOhhhgggghhg#QQQQQQQQQQQQQQQQQQQQQQQQQQ",
"QQQQQQQQQQQQQQQQQQQQQQQQQQQ2hhhhhhhgw QQQQQQQQQQQQQQQQQQQQQQQQQQ",
"QQQQQQQQQQQQQQQQQQQQQQQQQQQ.hhhhhhghOQQQQQQQQQQQQQQQQQQQQQQQQQQQ",
"QQQQQQQQQQQQQQQQQQQQQQQQQQQQ;hhhhhg2QQQQQQQQQQQQQQQQQQQQQQQQQQQQ",
"QQQQQQQQQQQQQQQQQQQQQQQQQQQQ hghhhh.QQQQQQQQQQQQQQQQQQQQQQQQQQQQ",
"QQQQQQQQQQQQQQQQQQQQQQQQQQQQQ%hhhh-QQQQQQQQQQQQQQQQQQQQQQQQQQQQQ",
"QQQQQQQQQQQQQQQQQQQQQQQQQQQQQ dghh QQQQQQQQQQQQQQQQQQQQQQQQQQQQQ",
"QQQQQQQQQQQQQQQQQQQQQQQQQQQQQQ@gh$QQQQQQQQQQQQQQQQQQQQQQQQQQQQQQ",
"QQQQQQQQQQQQQQQQQQQQQQQQQQQQQQ wd QQQQQQQQQQQQQQQQQQQQQQQQQQQQQQ",
"QQQQQQQQQQQQQQQQQQQQQQQQQQQQQQQO@QQQQQQQQQQQQQQQQQQQQQQQQQQQQQQQ",
"QQQQQQQQQQQQQQQQQQQQQQQQQQQQQQQQ QQQQQQQQQQQQQQQQQQQQQQQQQQQQQQQ",
"QQQQQQQQQQQQQQQQQQQQQQQQQQQQQQQQQQQQQQQQQQQQQQQQQQQQQQQQQQQQQQQQ",
"QQQQQQQQQQQQQQQQQQQQQQQQQQQQQQQQQQQQQQQQQQQQQQQQQQQQQQQQQQQQQQQQ"
};
