/* XPM */
static char *afp___[] = {
/* columns rows colors chars-per-pixel */
"32 32 98 2",
"   c #000002",
".  c #04040D",
"X  c #050513",
"o  c #0E0E13",
"O  c #07071A",
"+  c #0A0A1C",
"@  c #17171A",
"#  c #0B0B22",
"$  c #0E0E2B",
"%  c #1C1C27",
"&  c #13132E",
"*  c #1C1C29",
"=  c #121237",
"-  c #13133C",
";  c #202020",
":  c #27272F",
">  c #28282B",
",  c #2A2A33",
"<  c #313131",
"1  c #3C3C3D",
"2  c #161646",
"3  c #171748",
"4  c #18184D",
"5  c #1A1A53",
"6  c #1C1C5B",
"7  c #313142",
"8  c #1F1F65",
"9  c #1F1F6E",
"0  c #1F1F70",
"q  c #222267",
"w  c #23236D",
"e  c #29296C",
"r  c #242472",
"t  c #2A2A74",
"y  c #25257B",
"u  c #2A2A79",
"i  c #33337D",
"p  c #3F3F7B",
"a  c #474747",
"s  c #4E4E50",
"d  c #515154",
"f  c #5C5C5C",
"g  c #4A4A7E",
"h  c #505070",
"j  c #636364",
"k  c #6C6C6C",
"l  c #7D7D7D",
"z  c #2B2B85",
"x  c #2E2E8B",
"c  c #3C3C83",
"v  c #2F2F91",
"b  c #313194",
"n  c #333399",
"m  c #464687",
"M  c #4A4A84",
"N  c #464689",
"B  c #4D4D94",
"V  c #535392",
"C  c #606096",
"Z  c #65659B",
"A  c #68689E",
"S  c #7575A3",
"D  c #7979A3",
"F  c #7979AA",
"G  c #8A8A8A",
"H  c #909090",
"J  c #9B9B9B",
"K  c #8282AF",
"L  c #8B8BAF",
"P  c #9696A4",
"I  c #8B8BB4",
"U  c #9393B5",
"Y  c #9C9CBB",
"T  c #A7A7A7",
"R  c #A9A9A9",
"E  c #B3B3B3",
"W  c #BCBCBC",
"Q  c #A4A4C1",
"!  c #AEAEC4",
"~  c #B5B5C8",
"^  c #BEBECB",
"/  c #BFBFD0",
"(  c #C3C3C3",
")  c #C8C8C8",
"_  c #C2C2D3",
"`  c #CECEDD",
"'  c #D4D4D4",
"]  c #D6D6DD",
"[  c #DADADB",
"{  c #D5D5E1",
"}  c #DEDEE5",
"|  c #E1E1E5",
" . c #E6E6EC",
".. c #ECECEE",
"X. c #EEEEF2",
"o. c #F2F2F3",
"O. c #FEFEFE",
"+. c None",
/* pixels */
"+.+.+.+.+.+.+.+.+.+.+.+.+.+.+.+.+.+.+.+.+.+.+.+.+.+.+.+.+.+.+.+.",
"+.+.+.+.+.+.+.+.+.+.+.+.+.+.+.+.+.+.+.+.+.+.+.+.+.+.+.+.+.+.+.+.",
"+.+.+.+.+.+.+.+.+.+.+.+.+.+.+.+.b +.+.+.+.+.+.+.+.+.+.+.+.+.+.+.",
"+.+.+.+.+.+.+.+.+.+.+.+.+.+.+.x b +.+.+.+.+.+.+.+.+.+.+.+.+.+.+.",
"+.+.+.+.+.+.+.+.+.+.+.+.+.+.+.b n x +.+.+.+.+.+.+.+.+.+.+.+.+.+.",
"+.+.+.+.+.+.+.+.+.+.+.+.+.+.x b n b z +.+.+.+.+.+.+.+.+.+.+.+.+.",
"+.+.+.+.+.+.+.+.+.+.+.+.+.+.v b w n x +.+.+.+.+.+.+.+.+.+.+.+.+.",
"+.+.+.+.+.+.+.+.+.+.+.+.+.x b r   u n z +.+.+.+.+.+.+.+.+.+.+.+.",
"+.+.+.+.+.+.+.+.+.+.+.+.u b x O +.= n n +.+.+.+.+.+.+.+.+.+.+.+.",
"+.+.+.+.+.i V S Y ~ ^ ~ U Z g 5 +.+.q n x +.+.+.+.+.+.+.+.c +.+.",
"+.+.+.+.Z ! X.O.O.O.O.O.O.O.| Y V +.= x n +.+.+.+.+.+.+.C _ L +.",
"+.+.t Y ..O.O.' G j f k J | O.O.} I 6 8 n b +.+.+.+.r I ..O.^ t ",
"+.+.U O.O.[ 1 o + O 4 5 & o j o.O.O.{ F z u y r c K } O.O.' 7 +.",
"+.+.P O.J . +.+.+.+.n v = +.# @ W o.O.O.O.o.} X.O.O.O.o.E % +.+.",
"+.+.& < O +.+.+.+.x v w +.+.+.+.X d E [ X.o.O.o. .[ E s o +.+.+.",
"+.+.+.+.+.+.+.+.c B V M m +.+.+.+.+.o , d j k j s : X +.+.+.+.+.",
"+.+.+.+.+.u K _ ] } | | ] _ U z +.+.+.+.+.O 5 6 - +.+.+.+.m c +.",
"+.+.+.w F  .o.O.O.O.O.O.O.O.O.o.I r +.+.+.v b w +.+.+.+.A o. .u ",
"+.+.i Y O.O.o.) k < ; < j E o.O.O.` m +.+.b x - +.+.u I O.O.[ e ",
"+.+.D O.O.W 1 X X   r r 2 X > T o.O.O.! A V M M C U  .O.O.) , +.",
"+.+.h ( l o +.+.+.+.$ n b +.+.X f W O.O.O.O...o.O.O.O.[ l * +.+.",
"+.+.+.% # +.+.+.+.+.+.w n x +.+.+.% a H ' o.O.O.[ T j , O +.+.+.",
"+.+.+.+.+.+.+.+.+.+.+.+ b b +.+.+.+.4 - + o o o o + O +.+.+.+.+.",
"+.+.+.+.+.+.+.+.+.+.+.+.4 n b +.+.+.b b $ +.+.+.+.+.+.+.+.+.+.+.",
"+.+.+.+.+.+.+.+.+.+.+.+.# u n b +.x b q . +.+.+.+.+.+.+.+.+.+.+.",
"+.+.+.+.+.+.+.+.+.+.+.+.+.3 n n +.b b & +.+.+.+.+.+.+.+.+.+.+.+.",
"+.+.+.+.+.+.+.+.+.+.+.+.+.X u n n n 6 +.+.+.+.+.+.+.+.+.+.+.+.+.",
"+.+.+.+.+.+.+.+.+.+.+.+.+.+.= b n x $ +.+.+.+.+.+.+.+.+.+.+.+.+.",
"+.+.+.+.+.+.+.+.+.+.+.+.+.+.  r n 5 +.+.+.+.+.+.+.+.+.+.+.+.+.+.",
"+.+.+.+.+.+.+.+.+.+.+.+.+.+.+.o z   +.+.+.+.+.+.+.+.+.+.+.+.+.+.",
"+.+.+.+.+.+.+.+.+.+.+.+.+.+.+.+.  +.+.+.+.+.+.+.+.+.+.+.+.+.+.+.",
"+.+.+.+.+.+.+.+.+.+.+.+.+.+.+.+.+.+.+.+.+.+.+.+.+.+.+.+.+.+.+.+."
};
