/* XPM */
static char *opti_test___[] = {
/* columns rows colors chars-per-pixel */
"48 48 168 2",
"   c #000000",
".  c #000001",
"X  c #000002",
"o  c #000003",
"O  c #000005",
"+  c #000006",
"@  c #00000B",
"#  c #00000D",
"$  c #00000E",
"%  c #00000F",
"&  c #000010",
"*  c #000011",
"=  c #000012",
"-  c #000014",
";  c #000015",
":  c #000016",
">  c #000017",
",  c #00001A",
"<  c #00001E",
"1  c #000024",
"2  c #000025",
"3  c #000027",
"4  c #000028",
"5  c #00002A",
"6  c #00002C",
"7  c #00002D",
"8  c #00002F",
"9  c #000034",
"0  c #000035",
"q  c #000036",
"w  c #000037",
"e  c #000039",
"r  c #00003B",
"t  c #00003C",
"y  c #00003D",
"u  c #00003E",
"i  c #00003F",
"p  c #000040",
"a  c #000041",
"s  c #000042",
"d  c #000043",
"f  c #000044",
"g  c #000046",
"h  c #000047",
"j  c #000048",
"k  c #00004A",
"l  c #00004C",
"z  c #00004E",
"x  c #00004F",
"c  c #000050",
"v  c #000051",
"b  c #000052",
"n  c #000054",
"m  c #000055",
"M  c #000056",
"N  c #000057",
"B  c #000059",
"V  c #00005B",
"C  c #00005C",
"Z  c #00005E",
"A  c #000061",
"S  c #000062",
"D  c #000063",
"F  c #000064",
"G  c #000065",
"H  c #000066",
"J  c #000067",
"K  c #000068",
"L  c #000069",
"P  c #00006B",
"I  c #00006C",
"U  c #00006D",
"Y  c #00006F",
"T  c #000070",
"R  c #000071",
"E  c #000072",
"W  c #000073",
"Q  c #000074",
"!  c #000075",
"~  c #000079",
"^  c #00007A",
"/  c #00007B",
"(  c #00007C",
")  c #00007D",
"_  c #00007E",
"`  c #00007F",
"'  c #000080",
"]  c #000082",
"[  c #000083",
"{  c #000085",
"}  c #000086",
"|  c #000088",
" . c #000089",
".. c #00008B",
"X. c #00008C",
"o. c #00008D",
"O. c #00008E",
"+. c #000092",
"@. c #000093",
"#. c #000094",
"$. c #000097",
"%. c #000098",
"&. c #000099",
"*. c #00009B",
"=. c #00009C",
"-. c #00009D",
";. c #00009E",
":. c #00009F",
">. c #0000A0",
",. c #0000A3",
"<. c #0000A4",
"1. c #0000A5",
"2. c #0000A6",
"3. c #0000A9",
"4. c #0000AB",
"5. c #0000AD",
"6. c #0000AE",
"7. c #0000AF",
"8. c #0000B0",
"9. c #0000B1",
"0. c #0000B3",
"q. c #0000B5",
"w. c #0000B6",
"e. c #0000B7",
"r. c #0000B8",
"t. c #0000B9",
"y. c #0000BA",
"u. c #0000BB",
"i. c #0000BC",
"p. c #0000BD",
"a. c #0000BE",
"s. c #0000BF",
"d. c #0000C0",
"f. c #0000C1",
"g. c #0000C2",
"h. c #0000C3",
"j. c #0000C4",
"k. c #0000C5",
"l. c #0000C6",
"z. c #0000C7",
"x. c #0000C8",
"c. c #0000C9",
"v. c #0000CA",
"b. c #0000CB",
"n. c #0000CC",
"m. c #0000CD",
"M. c #0000CE",
"N. c #0000CF",
"B. c #0000D0",
"V. c #0000D1",
"C. c #0000D2",
"Z. c #0000D3",
"A. c #0000D4",
"S. c #0000D5",
"D. c #0000D6",
"F. c #0000D7",
"G. c #0000D8",
"H. c #0000D9",
"J. c #0000DC",
"K. c #0000DF",
"L. c #0000E0",
"P. c #0000E1",
"I. c #0000E2",
"U. c #0000E3",
"Y. c #0000E6",
"T. c #0000E7",
"R. c #0000E9",
"E. c None",
/* pixels */
"E.E.E.E.E.E.E.E.E.E.E.E.E.E.E.E.E.E.E.E.E.E.E.E.E.E.E.E.E.E.E.E.E.E.E.E.E.E.E.E.E.E.E.E.E.E.E.E.",
"E.E.E.E.E.E.E.E.E.E.E.E.E.E.E.E.E.E.E.E.E.E.E.E.E.E.E.E.E.E.E.E.E.E.E.E.E.E.E.E.E.E.E.E.E.E.E.E.",
"E.E.E.E.E.E.E.E.E.E.E.E.E.E.E.E.C ' ;.,.&.Q l E.E.E.7 T X.,.;. .H   E.E.E.E.E.E.E.E.E.E.E.E.E.E.",
"E.E.E.E.E.E.E.E.E.E.E.E.E.E.  5.x.M.M.x.x.M.M.H   q d.B.M.M.x.M.x.x.* E.E.E.E.E.E.E.E.E.E.E.E.E.",
"E.E.E.E.E.E.E.E.E.E.E.E.E.E.;.M.M.x.x.M.M.x.x.T.u H.x.M.M.M.x.M.M.x.y.* E.E.E.E.E.E.E.E.E.E.E.E.",
"E.E.E.E.E.E.E.E.E.E.E.E.E.e y.x.x.M.M.M.M.M.M.x.H.x.M.x.x.M.M.x.x.M.M.m E.E.E.E.E.E.E.E.E.E.E.E.",
"E.E.E.E.E.E.E.E.E.E.E.E.E.l k.M.M.M.x.x.x.x.M.M.x.M.x.M.M.M.M.x.x.M.B.T E.E.E.E.E.E.E.E.E.E.E.E.",
"E.E.E.E.E.E.E.E.E.E.E.E.E.p d.M.x.M.M.M.M.M.x.M.M.M.M.M.x.x.M.M.M.M.B.V E.E.E.E.E.E.E.E.E.E.E.E.",
"E.E.E.E.E.E.E.E.E.E.E.E.E.O 5.x.x.M.M.x.M.M.M.x.x.M.M.x.M.M.M.x.M.x.k.5 E.E.E.E.E.E.E.E.E.E.E.E.",
"E.E.E.E.E.E.E.E.E.E.E.E.E.  $ D.x.x.M.M.x.x.M.M.x.M.M.x.M.x.x.M.x.P.u   E.E.E.E.E.E.E.E.E.E.E.E.",
"E.E.E.E.E.E.E.E.E.E.E.E.E.E.  * x.M.x.M.M.M.x.M.M.M.M.M.M.x.M.x.B.p   E.E.E.E.E.E.E.E.E.E.E.E.E.",
"E.E.E.E.E.E.E.$ V H 7 E.E.E.E.  u k.M.x.M.x.M.M.M.x.x.M.M.M.x.M.A   E.E.E.E.$ m k E.E.E.E.E.E.E.",
"E.E.E.E.E.  H B.k.k.M.2.  E.E.E.  H M.x.M.M.x.x.x.M.M.M.M.M.x.X.  E.E.E.   .M.k.k.M.p E.E.E.E.E.",
"E.E.E.E.E. .D.M.x.M.x.M.M.q E.E.E.  ' B.x.M.M.M.M.M.x.x.x.B.;.  E.E.E.3 a.B.x.M.x.M.T.I E.E.E.E.",
"E.E.E.E.l x.x.x.M.M.M.M.x.M.{   E.E.  T B.x.M.M.M.x.M.M.B. .  E.E.  / k.M.M.x.M.M.x.x.x.f E.E.E.",
"E.E.E.E.I B.M.M.M.x.x.x.M.x.x.M.9 E.  O ,.M.x.x.M.M.x.M.0.* E.E.- d.x.x.M.x.M.x.M.M.M.B.I E.E.E.",
"E.E.E.E./ M.x.M.M.M.M.x.M.x.x.M.B.m $     w.B.x.M.x.M.d.<   O k M.x.M.x.M.M.x.M.M.M.x.M.( E.E.E.",
"E.E.E.E.T B.M.M.x.x.M.M.M.M.M.x.x.H.&.q   - w.M.M.M.k.7   5 +.D.x.M.x.M.M.x.M.M.x.M.M.M.I E.E.E.",
"E.E.E.E.k d.M.x.M.M.x.M.x.M.M.x.x.x.M.M.b   q d.x.x.p   e x.M.x.M.x.M.x.M.M.x.x.x.M.x.k.b E.E.E.",
"E.E.E.E.  X.B.M.M.x.M.M.x.M.M.x.M.M.M.x.P.+.* b M.C $ Q T.M.x.M.M.x.M.M.x.M.M.M.M.x.D.$.  E.E.E.",
"E.E.E.E.E.  f d.M.x.M.M.x.M.M.M.M.x.x.x.M.M.x.u u p a.B.x.M.x.M.M.x.M.M.M.x.x.M.x.d.m O E.E.E.E.",
"E.E.E.E.E.  2.B.x.M.M.x.M.M.x.M.M.M.M.M.M.x.;.O 3 * 0.x.M.x.x.M.M.x.M.x.M.M.M.M.x.H. .  E.E.E.E.",
"E.E.E.E.O 0.M.x.M.M.M.x.M.x.M.x.x.M.x.M.w.T   @ R.    ' a.B.M.M.M.M.x.M.x.M.M.x.M.M.B.,.E.E.E.E.",
"E.E.E.E.C x.x.M.x.x.M.M.M.x.M.M.M.x.B.&.3     { x.A     q 3.M.x.x.M.M.M.x.M.M.x.M.x.x.x.V E.E.E.",
"E.E.E.E.I M.M.x.x.M.M.M.x.M.M.x.M.H.P     E.3 5.M.&.  E.    X.H.x.x.M.M.x.M.M.M.M.M.M.B.I E.E.E.",
"E.E.E.E.( M.M.M.M.M.x.M.M.x.M.B.3.7   E.E.E.l D.M.d.e E.E.    p w.M.x.M.x.M.x.M.x.x.M.M./ E.E.E.",
"E.E.E.E.I B.x.M.M.x.M.M.x.M.P.A -   E.E.E.  a.x.M.B.H E.E.E.E.  , / P.M.M.M.M.M.M.M.x.B.T E.E.E.",
"E.E.E.E.e a.M.x.x.M.x.x.M.k.3   E.E.E.E.E.b D.x.x.M.M.  E.E.E.E.    u x.x.x.x.M.x.x.M.d.p E.E.E.",
"E.E.E.E.  P x.M.M.M.M.H.+.,   E.E.E.E.E.  M.x.M.M.x.H.m E.E.E.E.E.    5 ;.H.x.M.M.M.B.Q   E.E.E.",
"E.E.E.E.E.  q ' k.B.&.f     E.E.E.E.E.E.P M.M.x.M.M.x.B.  E.E.E.E.E.E.  $ l y.P.P.$.u   E.E.E.E.",
"E.E.E.E.E.E.            E.E.E.E.E.E.E.* 2.x.x.M.x.M.M.x.A E.E.E.E.E.E.E.              E.E.E.E.E.",
"E.E.E.E.E.E.E.        E.E.E.E.E.E.E.E.p x.M.M.M.x.M.x.M.2.E.E.E.E.E.E.E.E.        E.E.E.E.E.E.E.",
"E.E.E.E.E.E.E.E.E.E.E.E.E.E.E.E.E.E.  X.M.M.M.x.M.M.M.x.k.p E.E.E.E.E.E.E.E.E.E.E.E.E.E.E.E.E.E.",
"E.E.E.E.E.E.E.E.E.E.E.E.E.E.E.E.E.E., T.M.x.M.x.M.x.M.M.B.A E.E.E.E.E.E.E.E.E.E.E.E.E.E.E.E.E.E.",
"E.E.E.E.E.E.E.E.E.E.E.E.E.E.E.E.E.  &.w.w.0.w.0.w.0.w.w.w.3.O E.E.E.E.E.E.E.E.E.E.E.E.E.E.E.E.E.",
"E.E.E.E.E.E.E.E.E.E.E.E.E.E.E.E.E.  7 3 3 1 3 1 3 1 3 1 3 7   E.E.E.E.E.E.E.E.E.E.E.E.E.E.E.E.E.",
"E.E.E.E.E.E.E.E.E.E.E.E.E.E.E.E.E.E.                        E.E.E.E.E.E.E.E.E.E.E.E.E.E.E.E.E.E.",
"E.E.E.E.E.E.E.E.E.E.E.E.E.E.E.E.E.E.E.E.M.E.E.E.E.E.E.E.E.E.E.E.E.E.E.E.E.E.E.E.E.E.E.E.E.E.E.E.",
"E.E.E.E.E.E.E.E.E.E.E.E.E.E.E.E.x.E.E.E.E.E.E.E.E.E.E.x.E.E.E.E.E.E.E.E.E.E.E.E.E.E.M.E.E.E.E.E.",
"E.E.E.E.E.E.E.E.E.E.E.E.E.E.E.E.M.E.E.E.E.E.E.E.E.E.E.M.E.E.E.E.E.E.E.E.E.E.E.E.E.E.M.E.E.E.E.E.",
"E.E.E.E.E.k.M.d.E.E.M.5.x.d.E.M.x.M.M.E.M.E.E.E.E.E.x.M.x.M.E.E.a.M.x.E.E.,.k.M.M.x.x.M.M.E.E.E.",
"E.E.E.E.x.X.E. .a.E.M.{ E. .a.E.M.E.E.E.M.E.E.E.E.E.E.M.E.E.E.y.( E.T d.E.x.{ E.E.E.M.E.E.E.E.E.",
"E.E.E.E.M.E.E.E.x.E.M.E.E.E.x.E.M.E.E.E.x.E.E.M.M.M.E.M.E.E.E.x.M.x.M.x.E.( d.x.5.E.M.E.E.E.E.E.",
"E.E.E.E.k.' E.E.d.E.x.' E.E.d.E.x.E.E.E.M.E.E.E.E.E.E.x.E.E.E.y.' E.E.E.E.E.E.E.x.E.M.E.E.E.E.E.",
"E.E.E.E.E.a.x.k.E.E.M.&.x.k.E.E.3.x.M.E.M.E.E.E.E.E.E.,.x.M.E.E.a.x.M.M.E.M.x.k.;.E.5.x.M.E.E.E.",
"E.E.E.E.E.E.E.E.E.E.x.E.E.E.E.E.E.E.E.E.E.E.E.E.E.E.E.E.E.E.E.E.E.E.E.E.E.E.E.E.E.E.E.E.E.E.E.E.",
"E.E.E.E.E.E.E.E.E.E.M.E.E.E.E.E.E.E.E.E.E.E.E.E.E.E.E.E.E.E.E.E.E.E.E.E.E.E.E.E.E.E.E.E.E.E.E.E.",
"E.E.E.E.E.E.E.E.E.E.E.E.E.E.E.E.E.E.E.E.E.E.E.E.E.E.E.E.E.E.E.E.E.E.E.E.E.E.E.E.E.E.E.E.E.E.E.E."
};
