/* XPM */
static char * awe_icon_16_xpm[] = {
"16 15 91 1",
" 	c None",
".	c #333399",
"+	c #34349A",
"@	c #4D57A3",
"#	c #6D8BA3",
"$	c #7E99AC",
"%	c #46489F",
"&	c #ABA9BB",
"*	c #C8BAB1",
"=	c #687484",
"-	c #828894",
";	c #44618A",
">	c #104484",
",	c #3A3D9D",
"'	c #8495B1",
")	c #627994",
"!	c #2C4C71",
"~	c #5C7589",
"{	c #526480",
"]	c #0D306C",
"^	c #204680",
"/	c #2E5F98",
"(	c #4160A5",
"_	c #376392",
":	c #8297A8",
"<	c #8396A2",
"[	c #A0AEB1",
"}	c #5E7890",
"|	c #415D84",
"1	c #4A6892",
"2	c #2D598F",
"3	c #063A81",
"4	c #5C82AE",
"5	c #4A688C",
"6	c #4D6584",
"7	c #94A2AB",
"8	c #607B93",
"9	c #345278",
"0	c #254476",
"a	c #0B2A6C",
"b	c #30588F",
"c	c #1B4A8B",
"d	c #008080",
"e	c #396CA2",
"f	c #35537E",
"g	c #4F6484",
"h	c #A09898",
"i	c #1C406A",
"j	c #031A54",
"k	c #091D5A",
"l	c #1D3C76",
"m	c #0D3077",
"n	c #053281",
"o	c #7C9EBE",
"p	c #5B7896",
"q	c #435E82",
"r	c #768A9D",
"s	c #A8B6BC",
"t	c #74889E",
"u	c #17366A",
"v	c #254276",
"w	c #1D3B78",
"x	c #053683",
"y	c #B6CEDA",
"z	c #718BA2",
"A	c #788A9A",
"B	c #92A2AB",
"C	c #C6CFC9",
"D	c #8FA3AE",
"E	c #4E6E8C",
"F	c #88A1B4",
"G	c #587FA6",
"H	c #033080",
"I	c #95AFC0",
"J	c #A9BAC0",
"K	c #B6C4C3",
"L	c #B5C5C4",
"M	c #8EA5B0",
"N	c #5C7E9A",
"O	c #456D96",
"P	c #255999",
"Q	c #BFD0D0",
"R	c #E0E6DC",
"S	c #ECF0E0",
"T	c #E7ECE0",
"U	c #BCCECF",
"V	c #6697B8",
"W	c #B4CDD3",
"X	c #B8D0D3",
"Y	c #9FBCC9",
"Z	c #7CA2BD",
"       .        ",
"       .        ",
"      ...       ",
"     ....       ",
"     ...+@#$    ",
"    ...%&*=-;>  ",
"    ..,')!~{]^/ ",
"    ..(_:<[}|123",
"     .4567890abc",
"  d  .efghijklmn",
"      opqrstuvwx",
" d    yzABCDEFGH",
"ddd    IJKLMNOP ",
"        QRSTUV  ",
"         WXYZ   "};
