/* XPM */
static char * awe_icon_32_xpm[] = {
"32 30 335 2",
"  	c None",
". 	c #333399",
"+ 	c #37399B",
"@ 	c #4558A2",
"# 	c #7D8EB2",
"$ 	c #6085A2",
"% 	c #788EA1",
"& 	c #7E95A7",
"* 	c #809DB0",
"= 	c #7A9DB2",
"- 	c #333499",
"; 	c #5B61A7",
"> 	c #AEB6C3",
", 	c #C8C7C3",
"' 	c #CFC2B8",
") 	c #A1A2A4",
"! 	c #49607B",
"~ 	c #98989C",
"{ 	c #A7A7A9",
"] 	c #7B8EA0",
"^ 	c #6989A5",
"/ 	c #255F93",
"( 	c #34359A",
"_ 	c #7D83B1",
": 	c #C7C0BF",
"< 	c #DDCEC3",
"[ 	c #C7B3AA",
"} 	c #C2ABA0",
"| 	c #74747E",
"1 	c #435971",
"2 	c #5F7084",
"3 	c #687185",
"4 	c #223A6E",
"5 	c #093476",
"6 	c #073077",
"7 	c #084184",
"8 	c #8289B8",
"9 	c #C8C3C4",
"0 	c #A2A5AF",
"a 	c #546986",
"b 	c #213C63",
"c 	c #18355D",
"d 	c #375675",
"e 	c #567185",
"f 	c #768391",
"g 	c #6C7387",
"h 	c #042766",
"i 	c #062E70",
"j 	c #05296F",
"k 	c #2C568D",
"l 	c #4B7AA6",
"m 	c #4F5CA8",
"n 	c #829CB4",
"o 	c #456C95",
"p 	c #45688D",
"q 	c #4C6F90",
"r 	c #375D81",
"s 	c #3F6383",
"t 	c #738A98",
"u 	c #6F8391",
"v 	c #4D6A87",
"w 	c #173262",
"x 	c #133268",
"y 	c #163A73",
"z 	c #2E5485",
"A 	c #1F437E",
"B 	c #436F9F",
"C 	c #053E88",
"D 	c #36369A",
"E 	c #356CA6",
"F 	c #3A6C9B",
"G 	c #597EA1",
"H 	c #899FAF",
"I 	c #678299",
"J 	c #8D9FAA",
"K 	c #607587",
"L 	c #A9B5B6",
"M 	c #9CA8AA",
"N 	c #3B5877",
"O 	c #72899C",
"P 	c #5A7894",
"Q 	c #70879F",
"R 	c #627C9C",
"S 	c #A4B8C4",
"T 	c #315C8E",
"U 	c #134488",
"V 	c #04387E",
"W 	c #4357A6",
"X 	c #5785AE",
"Y 	c #10427F",
"Z 	c #3A608E",
"` 	c #8B9EAF",
" .	c #8B9EAB",
"..	c #92A5AF",
"+.	c #8EA0A9",
"@.	c #98A7AC",
"#.	c #A5B4B8",
"$.	c #617C93",
"%.	c #6C859C",
"&.	c #344F7B",
"*.	c #072663",
"=.	c #0A2E6D",
"-.	c #174079",
";.	c #496E98",
">.	c #26568F",
",.	c #073D86",
"'.	c #6281B6",
").	c #5780A8",
"!.	c #335480",
"~.	c #3A608A",
"{.	c #1B3F70",
"].	c #8EA0AC",
"^.	c #6E879B",
"/.	c #C2CAC8",
"(.	c #B5C0BF",
"_.	c #507490",
":.	c #385378",
"<.	c #69859D",
"[.	c #385780",
"}.	c #0F2F69",
"|.	c #031F62",
"1.	c #113573",
"2.	c #244E86",
"3.	c #5D85AA",
"4.	c #1F5090",
"5.	c #008080",
"6.	c #4C7DB1",
"7.	c #6988A8",
"8.	c #7C93A8",
"9.	c #3F5A7E",
"0.	c #1D3865",
"a.	c #6F7C8E",
"b.	c #758493",
"c.	c #AAB4B6",
"d.	c #697E90",
"e.	c #113A6C",
"f.	c #07255C",
"g.	c #2A4A70",
"h.	c #2E4D7C",
"i.	c #1F3D73",
"j.	c #0F2C6C",
"k.	c #08296D",
"l.	c #0A2D72",
"m.	c #376299",
"n.	c #2E609B",
"o.	c #06317A",
"p.	c #296DA9",
"q.	c #688BAD",
"r.	c #587495",
"s.	c #405C81",
"t.	c #68849E",
"u.	c #8C939E",
"v.	c #968483",
"w.	c #7B7B83",
"x.	c #203E60",
"y.	c #062F67",
"z.	c #011954",
"A.	c #091F54",
"B.	c #081A54",
"C.	c #102662",
"D.	c #113372",
"E.	c #08266B",
"F.	c #021F69",
"G.	c #0A3079",
"H.	c #053281",
"I.	c #083983",
"J.	c #343499",
"K.	c #306CA9",
"L.	c #224C87",
"M.	c #2A4E80",
"N.	c #112E63",
"O.	c #183161",
"P.	c #314871",
"Q.	c #BEB4B1",
"R.	c #B1ACA9",
"S.	c #395572",
"T.	c #123C71",
"U.	c #011A56",
"V.	c #021654",
"W.	c #041653",
"X.	c #081D5D",
"Y.	c #2F487A",
"Z.	c #2D4F81",
"`.	c #123577",
" +	c #153E82",
".+	c #073180",
"++	c #012D80",
"@+	c #5687B8",
"#+	c #4D77A1",
"$+	c #2F5786",
"%+	c #99AAB7",
"&+	c #788EA4",
"*+	c #26426C",
"=+	c #78889C",
"-+	c #D5D7D1",
";+	c #8FA2AD",
">+	c #57748F",
",+	c #3A5579",
"'+	c #183467",
")+	c #081E57",
"!+	c #0C2762",
"~+	c #0B2462",
"{+	c #314E7F",
"]+	c #25437B",
"^+	c #06236D",
"/+	c #053180",
"(+	c #033786",
"_+	c #92ABCB",
":+	c #BECFD6",
"<+	c #305480",
"[+	c #75899D",
"}+	c #66839D",
"|+	c #072659",
"1+	c #2C5079",
"2+	c #5D778F",
"3+	c #C1CCCC",
"4+	c #F7F8E7",
"5+	c #EEF1E4",
"6+	c #90A7B5",
"7+	c #143567",
"8+	c #345D88",
"9+	c #4E6D8F",
"0+	c #092966",
"a+	c #44608A",
"b+	c #05256C",
"c+	c #083D88",
"d+	c #03307D",
"e+	c #CFDCE0",
"f+	c #4C6C8E",
"g+	c #6D8399",
"h+	c #92A0AA",
"i+	c #283C5C",
"j+	c #415E7C",
"k+	c #AEBBBD",
"l+	c #768A96",
"m+	c #F4F5E5",
"n+	c #F0F2E6",
"o+	c #7F98A9",
"p+	c #254973",
"q+	c #7E99AB",
"r+	c #8BA8BA",
"s+	c #375A83",
"t+	c #6487A7",
"u+	c #133C7D",
"v+	c #043585",
"w+	c #ACC7D6",
"x+	c #99ADBB",
"y+	c #718FA6",
"z+	c #768FA2",
"A+	c #B0BCBF",
"B+	c #8194A0",
"C+	c #D8DCD3",
"D+	c #EDEFE1",
"E+	c #C3CDC8",
"F+	c #6F8999",
"G+	c #5E788E",
"H+	c #34577B",
"I+	c #5F7D99",
"J+	c #BECDD1",
"K+	c #9EB5C1",
"L+	c #A1BCCA",
"M+	c #4A7DAB",
"N+	c #033081",
"O+	c #B8D3DD",
"P+	c #C5D4D7",
"Q+	c #899FB1",
"R+	c #859FAF",
"S+	c #DFE4DC",
"T+	c #B8C6C7",
"U+	c #A2B0B3",
"V+	c #C9D4CE",
"W+	c #A7B9BC",
"X+	c #8EA6B1",
"Y+	c #638097",
"Z+	c #5F7B94",
"`+	c #41678C",
" @	c #2A4F7F",
".@	c #315888",
"+@	c #6791B6",
"@@	c #124B93",
"#@	c #729CBB",
"$@	c #8DA9BB",
"%@	c #BFCDCE",
"&@	c #8097A8",
"*@	c #C6D2CF",
"=@	c #B8C6C4",
"-@	c #C5D2CD",
";@	c #9FB4B9",
">@	c #ACBEC1",
",@	c #9DB0B7",
"'@	c #7F9BAE",
")@	c #4F799C",
"!@	c #597D9E",
"~@	c #6190B2",
"{@	c #12498E",
"]@	c #043988",
"^@	c #9DBCC9",
"/@	c #BCCBCB",
"(@	c #BBCAC8",
"_@	c #DAE1D7",
":@	c #E6EADD",
"<@	c #E0E6D9",
"[@	c #EEF2E1",
"}@	c #E9EEE0",
"|@	c #D8E1DA",
"1@	c #9BB1BA",
"2@	c #B5CACE",
"3@	c #99BBC8",
"4@	c #5C93B7",
"5@	c #1B5B9B",
"6@	c #B9D1D7",
"7@	c #CBD9D9",
"8@	c #E2E9DE",
"9@	c #E0E6DC",
"0@	c #EFF2E3",
"a@	c #F2F5E4",
"b@	c #F0F2E4",
"c@	c #ECF0E3",
"d@	c #DAE3DC",
"e@	c #C8D8D7",
"f@	c #79A4BD",
"g@	c #20619E",
"h@	c #B8D0D6",
"i@	c #C3D5D5",
"j@	c #DAE5DD",
"k@	c #D8E3DB",
"l@	c #CAD8D5",
"m@	c #BED0D2",
"n@	c #A2BECA",
"o@	c #759DBA",
"p@	c #2966A0",
"q@	c #84B0C6",
"r@	c #7CA9C1",
"s@	c #6C9EBC",
"t@	c #5389B2",
"                                                                ",
"                            . .                                 ",
"                            . .                                 ",
"                          . . . .                               ",
"                          . . . .                               ",
"                        . . . . . .                             ",
"                      . . . . . . .                             ",
"                      . . . . . . . .                           ",
"                    . . . . . . . . .                           ",
"                    . . . . . . . + @ # $ % & * =               ",
"                  . . . . . . - ; > , ' ) ! ~ { ] ^ /           ",
"                  . . . . . ( _ : < [ } | 1 2 3 4 5 6 7         ",
"                . . . . . . 8 9 0 a b c d e f g h i j k l       ",
"                . . . . . m n o p q r s t u v w x y z A B C     ",
"                . . . . D E F G H I J K L M N O P Q R S T U V   ",
"                  . . . W X Y Z `  ...+.@.#.$.%.&.*.=.-.;.>.,.  ",
"                  . . . '.).!.~.{.].^./.(._.:.<.[.}.|.1.2.3.4.  ",
"          5.        . . 6.7.8.9.0.a.b.c.d.e.f.g.h.i.j.k.l.m.n.o.",
"          5.        . . p.q.r.s.t.u.v.w.x.y.z.A.B.C.D.E.F.G.H.I.",
"        5.            J.K.L.M.N.O.P.Q.R.S.T.U.V.W.X.Y.Z.`. +.+++",
"        5.              @+#+$+%+&+*+=+-+;+>+,+'+)+!+~+{+]+^+/+(+",
"      5.                _+:+<+[+}+|+1+2+3+4+5+6+7+8+9+0+a+b+c+d+",
"      5.                  e+f+g+h+i+j+k+l+m+n+o+p+q+r+s+t+u+v+  ",
"    5.5.                  w+x+y+z+A+B+C+D+E+F+G+H+I+J+K+L+M+N+  ",
"  5.5.                    O+P+Q+R+S+T+U+V+W+X+Y+Z+`+ @.@+@@@    ",
"  5.5.5.5.5.5.              #@$@%@&@*@=@-@;@>@,@'@)@!@~@{@]@    ",
"  5.5.5.5.5.5.5.5.5.          ^@/@(@_@:@<@[@}@|@1@2@3@4@5@      ",
"                                6@7@8@9@0@a@b@c@d@e@f@g@        ",
"                                    h@i@j@k@l@m@n@o@p@          ",
"                                        q@r@s@t@                "};
