/* XPM */
static char * awe_icon_48_xpm[] = {
"48 44 720 2",
"  	c None",
". 	c #333399",
"+ 	c #34369A",
"@ 	c #464CA1",
"# 	c #737EB2",
"$ 	c #7DA0B4",
"% 	c #5A86A6",
"& 	c #6E92AA",
"* 	c #7094AC",
"= 	c #84A6B8",
"- 	c #6B94AE",
"; 	c #36389B",
"> 	c #4E5EA6",
", 	c #5F82AD",
"' 	c #97ACBA",
") 	c #90A1AE",
"! 	c #6D889E",
"~ 	c #617A92",
"{ 	c #96969D",
"] 	c #8F939C",
"^ 	c #8A99A6",
"/ 	c #7F96A7",
"( 	c #86A0B0",
"_ 	c #83A4B5",
": 	c #6D96AF",
"< 	c #4A51A2",
"[ 	c #96A2BB",
"} 	c #CDD0CD",
"| 	c #D3D0C8",
"1 	c #D7C9BE",
"2 	c #DACABB",
"3 	c #BCB3AC",
"4 	c #556B83",
"5 	c #3B5675",
"6 	c #868C95",
"7 	c #BFB3AC",
"8 	c #ACAAAA",
"9 	c #7D8B9B",
"0 	c #5F809D",
"a 	c #7592AC",
"b 	c #2C6595",
"c 	c #15568F",
"d 	c #35369A",
"e 	c #6972AC",
"f 	c #B3B4BA",
"g 	c #CFC3BE",
"h 	c #D8CBC1",
"i 	c #CCBAB0",
"j 	c #E0C4B3",
"k 	c #DABEAC",
"l 	c #AE9A93",
"m 	c #6C7480",
"n 	c #4A5F75",
"o 	c #54677E",
"p 	c #A2A3A5",
"q 	c #8B8C97",
"r 	c #556283",
"s 	c #13316D",
"t 	c #063175",
"u 	c #073178",
"v 	c #094083",
"w 	c #08468A",
"x 	c #7580B2",
"y 	c #C9C6C6",
"z 	c #CFC5C0",
"A 	c #E3D5C9",
"B 	c #CDC2BC",
"C 	c #9C969A",
"D 	c #837E87",
"E 	c #6B6B78",
"F 	c #3F526B",
"G 	c #153559",
"H 	c #435C74",
"I 	c #6F808F",
"J 	c #596277",
"K 	c #5A627B",
"L 	c #032565",
"M 	c #052B6D",
"N 	c #103D7C",
"O 	c #0D3578",
"P 	c #012671",
"Q 	c #24588E",
"R 	c #185190",
"S 	c #747EB4",
"T 	c #D3CFCE",
"U 	c #C3BEC0",
"V 	c #A3A6B1",
"W 	c #647791",
"X 	c #23446E",
"Y 	c #0B2C5A",
"Z 	c #0B2C59",
"` 	c #072A57",
" .	c #41607D",
"..	c #4F6D84",
"+.	c #5F798C",
"@.	c #728392",
"#.	c #6F7B8B",
"$.	c #54607E",
"%.	c #042261",
"&.	c #062F6F",
"*.	c #042A6E",
"=.	c #03266D",
"-.	c #01256F",
";.	c #426C9A",
">.	c #799CB8",
",.	c #0B458E",
"'.	c #4F5BA8",
").	c #B3BFC9",
"!.	c #7C93AD",
"~.	c #375E8B",
"{.	c #29527F",
"].	c #31527A",
"^.	c #3D6287",
"/.	c #2F5981",
"(.	c #446A8C",
"_.	c #294F73",
":.	c #678294",
"<.	c #81929D",
"[.	c #6D8393",
"}.	c #627E95",
"|.	c #2B466E",
"1.	c #06235C",
"2.	c #052461",
"3.	c #15336B",
"4.	c #032B6F",
"5.	c #103975",
"6.	c #193E79",
"7.	c #0B3478",
"8.	c #6C90B1",
"9.	c #1F5998",
"0.	c #053B86",
"a.	c #393D9D",
"b.	c #5C87B4",
"c.	c #42729F",
"d.	c #2E5E90",
"e.	c #688BA9",
"f.	c #7693AA",
"g.	c #7F98AC",
"h.	c #6A88A1",
"i.	c #8396A4",
"j.	c #1F3E64",
"k.	c #718798",
"l.	c #8999A2",
"m.	c #6D808C",
"n.	c #7D8F99",
"o.	c #556D86",
"p.	c #163967",
"q.	c #516B88",
"r.	c #2D4D77",
"s.	c #597896",
"t.	c #6B829D",
"u.	c #68849F",
"v.	c #A6B8C2",
"w.	c #547398",
"x.	c #15417F",
"y.	c #114286",
"z.	c #033B87",
"A.	c #4661A9",
"B.	c #1D5E9B",
"C.	c #43739F",
"D.	c #43719C",
"E.	c #567A9D",
"F.	c #94A8B6",
"G.	c #59768F",
"H.	c #728A9D",
"I.	c #8FA4B0",
"J.	c #51687E",
"K.	c #8597A1",
"L.	c #C4CDC9",
"M.	c #A4B0B1",
"N.	c #9FABAD",
"O.	c #465E78",
"P.	c #5D7992",
"Q.	c #788B9C",
"R.	c #4A6B8A",
"S.	c #8298A9",
"T.	c #3C587F",
"U.	c #2C4C7C",
"V.	c #A4B8C5",
"W.	c #85A1B6",
"X.	c #587FA2",
"Y.	c #174785",
"Z.	c #1A4A8C",
"`.	c #043B82",
" +	c #373A9C",
".+	c #5082B2",
"++	c #678FB1",
"@+	c #0E4382",
"#+	c #275288",
"$+	c #4D7098",
"%+	c #ACBBC4",
"&+	c #BAC3C5",
"*+	c #8A9CA8",
"=+	c #A4B2B8",
"-+	c #95A8B1",
";+	c #8799A2",
">+	c #9EABAF",
",+	c #B0BABA",
"'+	c #B0BDBD",
")+	c #557088",
"!+	c #415E7D",
"~+	c #8497A7",
"{+	c #546D8F",
"]+	c #1D3669",
"^+	c #072866",
"/+	c #052261",
"(+	c #0E3675",
"_+	c #1B4279",
":+	c #416895",
"<+	c #547EA5",
"[+	c #0A3B80",
"}+	c #08438B",
"|+	c #008080",
"1+	c #4757A7",
"2+	c #6595B9",
"3+	c #296097",
"4+	c #204A80",
"5+	c #09316D",
"6+	c #3B6591",
"7+	c #13386D",
"8+	c #5D7893",
"9+	c #648199",
"0+	c #6A879C",
"a+	c #8A9FAA",
"b+	c #B4BDBD",
"c+	c #7D919C",
"d+	c #9FAFB5",
"e+	c #6F8EA2",
"f+	c #8195A5",
"g+	c #7F99AC",
"h+	c #4B7092",
"i+	c #234474",
"j+	c #051F5A",
"k+	c #0A2B67",
"l+	c #0B2F6F",
"m+	c #0A3273",
"n+	c #1B477E",
"o+	c #113977",
"p+	c #5380A7",
"q+	c #5D86AB",
"r+	c #0D4288",
"s+	c #033079",
"t+	c #6A82B8",
"u+	c #5686B0",
"v+	c #7E9AB3",
"w+	c #436189",
"x+	c #2A4D78",
"y+	c #4D6F93",
"z+	c #2D517E",
"A+	c #576F8A",
"B+	c #A5B0B6",
"C+	c #6D869A",
"D+	c #8398A6",
"E+	c #DDDFD6",
"F+	c #D0D5CD",
"G+	c #8198A5",
"H+	c #345F83",
"I+	c #133362",
"J+	c #304F76",
"K+	c #879DAC",
"L+	c #46668B",
"M+	c #254576",
"N+	c #13346E",
"O+	c #02195C",
"P+	c #042368",
"Q+	c #133673",
"R+	c #355D8D",
"S+	c #113F7F",
"T+	c #779AB7",
"U+	c #3F6C9E",
"V+	c #02347F",
"W+	c #638BBA",
"X+	c #5180AB",
"Y+	c #537197",
"Z+	c #738AA2",
"`+	c #516F8C",
" @	c #516D8E",
".@	c #1A3665",
"+@	c #576A84",
"@@	c #677689",
"#@	c #6F8194",
"$@	c #748593",
"%@	c #C2C9C7",
"&@	c #A4B1B6",
"*@	c #274A6E",
"=@	c #0E376B",
"-@	c #072860",
";@	c #1B3764",
">@	c #294A70",
",@	c #244779",
"'@	c #557598",
")@	c #0F2D69",
"!@	c #16326F",
"~@	c #021E66",
"{@	c #0C3173",
"]@	c #0B2D71",
"^@	c #082E74",
"/@	c #6189B1",
"(@	c #4D7EAB",
"_@	c #083A86",
":@	c #2D6EAC",
"<@	c #376DA2",
"[@	c #A0B7C6",
"}@	c #93A6B7",
"|@	c #314A73",
"1@	c #0B275B",
"2@	c #163361",
"3@	c #455D7E",
"4@	c #717685",
"5@	c #93898C",
"6@	c #A3A0A2",
"7@	c #7A828D",
"8@	c #203C5D",
"9@	c #1D4269",
"0@	c #042C66",
"a@	c #072660",
"b@	c #0D2958",
"c@	c #122D5D",
"d@	c #041550",
"e@	c #10245E",
"f@	c #0C2B6A",
"g@	c #113472",
"h@	c #051F64",
"i@	c #08286C",
"j@	c #04256E",
"k@	c #0D357A",
"l@	c #0B3781",
"m@	c #073785",
"n@	c #175095",
"o@	c #04286E",
"p@	c #34349A",
"q@	c #387DB3",
"r@	c #215A97",
"s@	c #6384A6",
"t@	c #45678E",
"u@	c #8EA1B2",
"v@	c #406187",
"w@	c #7C98AE",
"x@	c #B5C5CB",
"y@	c #9D9EA5",
"z@	c #927C7B",
"A@	c #A69491",
"B@	c #6B707A",
"C@	c #2A4461",
"D@	c #0D3666",
"E@	c #022A67",
"F@	c #001854",
"G@	c #031750",
"H@	c #04154F",
"I@	c #10245A",
"J@	c #0C1F59",
"K@	c #1B3168",
"L@	c #183C78",
"M@	c #08256A",
"N@	c #0D2D6E",
"O@	c #042169",
"P@	c #072670",
"Q@	c #092C76",
"R@	c #052D7C",
"S@	c #05398A",
"T@	c #012A78",
"U@	c #34359A",
"V@	c #4381B6",
"W@	c #083B86",
"X@	c #30578A",
"Y@	c #1D4279",
"Z@	c #0E306A",
"`@	c #031C54",
" #	c #0E2557",
".#	c #0D285B",
"+#	c #455B7E",
"@#	c #C5BDB9",
"##	c #BDA9A2",
"$#	c #B9B8B5",
"%#	c #4C6278",
"&#	c #092F63",
"*#	c #1E497B",
"=#	c #011B57",
"-#	c #021C5A",
";#	c #011350",
">#	c #010E4B",
",#	c #011758",
"'#	c #04195B",
")#	c #1C376F",
"!#	c #547297",
"~#	c #24487D",
"{#	c #153E7E",
"]#	c #041F68",
"^#	c #235492",
"/#	c #08307D",
"(#	c #043487",
"_#	c #01287A",
":#	c #3D7BB5",
"<#	c #0F448B",
"[#	c #2A598E",
"}#	c #396391",
"|#	c #587A9B",
"1#	c #69829A",
"2#	c #335078",
"3#	c #153060",
"4#	c #112D5D",
"5#	c #738297",
"6#	c #C9C6C3",
"7#	c #C3C4BF",
"8#	c #61798C",
"9#	c #2A527C",
"0#	c #0F3367",
"a#	c #07245A",
"b#	c #031D57",
"c#	c #061E59",
"d#	c #071A55",
"e#	c #071C59",
"f#	c #051B5B",
"g#	c #051A5B",
"h#	c #254378",
"i#	c #567297",
"j#	c #254F87",
"k#	c #08266D",
"l#	c #062570",
"m#	c #052B7A",
"n#	c #03388A",
"o#	c #01297B",
"p#	c #769CC6",
"q#	c #8BABC4",
"r#	c #6E93B1",
"s#	c #1B4379",
"t#	c #405D82",
"u#	c #C0C9CD",
"v#	c #B9C7CC",
"w#	c #62809C",
"x#	c #223F6A",
"y#	c #476080",
"z#	c #B1B9BD",
"A#	c #D3D8D2",
"B#	c #D5DCD5",
"C#	c #9EAFB6",
"D#	c #A9BBBE",
"E#	c #889CA9",
"F#	c #4F6D8B",
"G#	c #1E3B6A",
"H#	c #092057",
"I#	c #17386C",
"J#	c #17376C",
"K#	c #19346A",
"L#	c #092464",
"M#	c #1C3972",
"N#	c #475D87",
"O#	c #052066",
"P#	c #092871",
"Q#	c #062D7C",
"R#	c #04408F",
"S#	c #022D79",
"T#	c #99AACF",
"U#	c #89AAC4",
"V#	c #C8D6DA",
"W#	c #234979",
"X#	c #748FA6",
"Y#	c #687D93",
"Z#	c #6E8BA3",
"`#	c #264A77",
" $	c #052459",
".$	c #224874",
"+$	c #2C4F76",
"@$	c #57718A",
"#$	c #BFCACA",
"$$	c #FAFAEB",
"%$	c #F9FAE9",
"&$	c #FCFDEC",
"*$	c #CBD5D2",
"=$	c #829DAF",
"-$	c #143263",
";$	c #153D70",
">$	c #33608C",
",$	c #43678C",
"'$	c #264274",
")$	c #062766",
"!$	c #4F668C",
"~$	c #143573",
"{$	c #082971",
"]$	c #083883",
"^$	c #06418E",
"/$	c #C4D6DF",
"($	c #DCE3E2",
"_$	c #345883",
":$	c #586F8A",
"<$	c #708396",
"[$	c #768998",
"}$	c #3F516C",
"|$	c #0B214A",
"1$	c #4C6C8B",
"2$	c #7690A3",
"3$	c #8298A4",
"4$	c #2E4F70",
"5$	c #A9B6B8",
"6$	c #F3F5E5",
"7$	c #FEFEEE",
"8$	c #E8ECE3",
"9$	c #829FB1",
"0$	c #234976",
"a$	c #486686",
"b$	c #819DB0",
"c$	c #85A1B3",
"d$	c #577697",
"e$	c #274878",
"f$	c #3A5C88",
"g$	c #55769E",
"h$	c #04236D",
"i$	c #063886",
"j$	c #053685",
"k$	c #87AECC",
"l$	c #DAE4E4",
"m$	c #4E7094",
"n$	c #708AA2",
"o$	c #708BA2",
"p$	c #A2B1B9",
"q$	c #9BA9AF",
"r$	c #2C4260",
"s$	c #2C4665",
"t$	c #758A9B",
"u$	c #DCE1D7",
"v$	c #BDC5BF",
"w$	c #E7E9DB",
"x$	c #FAFAE8",
"y$	c #DCE2D9",
"z$	c #B0C0C4",
"A$	c #617C91",
"B$	c #1B3D66",
"C$	c #597A98",
"D$	c #7590A4",
"E$	c #B0C4CB",
"F$	c #557998",
"G$	c #60829E",
"H$	c #5882A4",
"I$	c #779FBA",
"J$	c #0E3B7F",
"K$	c #043484",
"L$	c #012878",
"M$	c #639DC2",
"N$	c #C9D8DD",
"O$	c #A1B3BF",
"P$	c #86A0B2",
"Q$	c #7894A8",
"R$	c #9EADB7",
"S$	c #BAC6C6",
"T$	c #6D8395",
"U$	c #D2D8D1",
"V$	c #D7DBD1",
"W$	c #F3F4E4",
"X$	c #D9DFD6",
"Y$	c #A8B6B7",
"Z$	c #607B8E",
"`$	c #57748C",
" %	c #516C85",
".%	c #2E5279",
"+%	c #50708D",
"@%	c #5F7E99",
"#%	c #D8E2DE",
"$%	c #AEC1CA",
"%%	c #B7CAD0",
"&%	c #A2BCC9",
"*%	c #94B7CA",
"=%	c #3971A5",
"-%	c #033586",
";%	c #CCDFE2",
">%	c #C8D5D6",
",%	c #9CAFBC",
"'%	c #6D8CA3",
")%	c #839BAB",
"!%	c #EFF0E4",
"~%	c #A6B7BB",
"{%	c #B6C3C4",
"]%	c #D1D8D1",
"^%	c #CDD6CF",
"/%	c #B9C8C7",
"(%	c #B2C3C3",
"_%	c #9AAFB5",
":%	c #6E8DA2",
"<%	c #5A7891",
"[%	c #436281",
"}%	c #31537A",
"|%	c #547796",
"1%	c #577B9E",
"2%	c #284B7C",
"3%	c #6184A5",
"4%	c #AFC7D3",
"5%	c #4678A9",
"6%	c #235F9F",
"7%	c #032E7B",
"8%	c #9CBACA",
"9%	c #AFC0C8",
"0%	c #89A1B3",
"a%	c #C7D3D2",
"b%	c #9BAFB9",
"c%	c #EDEFE4",
"d%	c #BBCACA",
"e%	c #B4C1C2",
"f%	c #86979E",
"g%	c #CED9D1",
"h%	c #CBD7D2",
"i%	c #8299A6",
"j%	c #8CA2AC",
"k%	c #7491A4",
"l%	c #6E8697",
"m%	c #7F98AA",
"n%	c #7592A7",
"o%	c #335D88",
"p%	c #153D73",
"q%	c #0E316D",
"r%	c #2A5A8F",
"s%	c #3F74A5",
"t%	c #093784",
"u%	c #06408F",
"v%	c #84B0C9",
"w%	c #5D84A9",
"x%	c #9AB4C2",
"y%	c #CEDAD7",
"z%	c #7791A4",
"A%	c #7F97A9",
"B%	c #C8D5D1",
"C%	c #BECCCB",
"D%	c #B8C6C4",
"E%	c #D9E1D7",
"F%	c #8EA7B0",
"G%	c #ADC0C1",
"H%	c #BECECB",
"I%	c #96ABB4",
"J%	c #ACBDC2",
"K%	c #8CA7B6",
"L%	c #678CA6",
"M%	c #3B6B94",
"N%	c #5C82A1",
"O%	c #88ACC1",
"P%	c #6193B4",
"Q%	c #114B8D",
"R%	c #063E8C",
"S%	c #033482",
"T%	c #8EB4C9",
"U%	c #8CAABA",
"V%	c #A2B6BF",
"W%	c #AABCBA",
"X%	c #93AAB2",
"Y%	c #C4CFCB",
"Z%	c #E5E9DD",
"`%	c #EDF0E0",
" &	c #DEE5D9",
".&	c #CCD7D0",
"+&	c #EFF2E2",
"@&	c #EEF2E3",
"#&	c #D1DCD6",
"$&	c #C2D1D0",
"%&	c #7A96A9",
"&&	c #9FB7C0",
"*&	c #A0BCC5",
"=&	c #9BBBC7",
"-&	c #75A2BC",
";&	c #689DBC",
">&	c #276BA5",
",&	c #084A8E",
"'&	c #A4C5D1",
")&	c #C8DAD8",
"!&	c #E4EBE1",
"~&	c #EAEEE3",
"{&	c #E9EDE0",
"]&	c #E3E8DB",
"^&	c #DFE4D9",
"/&	c #E9EEDE",
"(&	c #F0F2E2",
"_&	c #EEF2E0",
":&	c #ECF0E1",
"<&	c #F2F4E6",
"[&	c #F3F5E7",
"}&	c #CED9D4",
"|&	c #BBCCCC",
"1&	c #CEDCD9",
"2&	c #AEC8CF",
"3&	c #689AB9",
"4&	c #3979AA",
"5&	c #124D92",
"6&	c #B4D0D8",
"7&	c #A5C0CC",
"8&	c #D3DFDC",
"9&	c #DFE6DD",
"0&	c #DFE6DC",
"a&	c #E2E8DD",
"b&	c #F1F4E4",
"c&	c #F4F6E6",
"d&	c #F3F6E5",
"e&	c #EFF2E4",
"f&	c #EDF0E3",
"g&	c #EAEDE2",
"h&	c #E0E7DF",
"i&	c #D0DDD9",
"j&	c #C3D6D7",
"k&	c #8EB4C5",
"l&	c #2F6FA4",
"m&	c #105095",
"n&	c #72A0BF",
"o&	c #C4D7D9",
"p&	c #D3DFDB",
"q&	c #CFDCD8",
"r&	c #E4EBE0",
"s&	c #E0E8DD",
"t&	c #D7E1D9",
"u&	c #CFDBD6",
"v&	c #CBD8D6",
"w&	c #BFD1D3",
"x&	c #ADC6CD",
"y&	c #88ADC2",
"z&	c #3772A6",
"A&	c #99BDCD",
"B&	c #9FC0CD",
"C&	c #B2CDD2",
"D&	c #B4CDD2",
"E&	c #B2CCCF",
"F&	c #A5C2CB",
"G&	c #97B8C7",
"H&	c #86ACC2",
"I&	c #6293B8",
"J&	c #4A81AE",
"K&	c #568EB7",
"                                                                                                ",
"                                            .                                                   ",
"                                          . .                                                   ",
"                                          . . .                                                 ",
"                                        . . . . .                                               ",
"                                        . . . . .                                               ",
"                                      . . . . . . .                                             ",
"                                    . . . . . . . .                                             ",
"                                    . . . . . . . . .                                           ",
"                                  . . . . . . . . . .                                           ",
"                                  . . . . . . . . . . .                                         ",
"                                . . . . . . . . . . . . .                                       ",
"                                . . . . . . . . . . . . .                                       ",
"                              . . . . . . . . . . . . + @ # $ % & * = -                         ",
"                            . . . . . . . . . . . ; > , ' ) ! ~ { ] ^ / ( _ :                   ",
"                            . . . . . . . . . . < [ } | 1 2 3 4 5 6 7 8 9 0 a b c               ",
"                          . . . . . . . . . d e f g h i j k l m n o p q r s t u v w             ",
"                          . . . . . . . . d x y z A B C D E F G H I J K L M N O P Q R           ",
"                        . . . . . . . . . S T U V W X Y Z `  ...+.@.#.$.%.&.*.=.-.;.>.,.        ",
"                        . . . . . . . . '.).!.~.{.].^./.(._.:.<.[.}.|.1.2.3.4.5.6.7.8.9.0.      ",
"                        . . . . . . . a.b.c.d.e.f.g.h.i.j.k.l.m.n.o.p.q.r.s.t.u.v.w.x.y.z.      ",
"                        . . . . . . . A.B.C.D.E.F.G.H.I.J.K.L.M.N.O.P.Q.R.S.T.U.V.W.X.Y.Z.`.    ",
"                          . . . . .  +.+++@+#+$+%+&+*+=+-+;+>+,+'+)+!+~+{+]+^+/+(+_+:+<+[+}+    ",
"                  |+        . . . . 1+2+3+4+5+6+7+8+9+0+a+b+c+d+e+f+g+h+i+j+k+l+m+n+o+p+q+r+s+  ",
"                            . . . . t+u+v+w+x+y+z+A+B+C+D+E+F+G+H+I+J+K+L+M+N+O+P+Q+R+S+T+U+V+  ",
"                |+            . . . W+X+Y+Z+`+ @.@+@@@#@$@%@&@*@=@-@;@>@,@'@)@!@~@{@]@^@/@(@_@  ",
"              |+|+            . . . :@<@[@}@|@1@2@3@4@5@6@7@8@9@0@a@b@c@d@e@f@g@h@i@j@k@l@m@n@o@",
"              |+                . p@q@r@s@t@u@v@w@x@y@z@A@B@C@D@E@F@G@H@I@J@K@L@M@N@O@P@Q@R@S@T@",
"            |+|+                . U@V@W@X@Y@Z@`@ #.#+#@###$#%#&#*#=#-#;#>#,#'#)#!#~#{#]#^#/#(#_#",
"            |+                    . :#<#[#}#|#1#2#3#4#5#6#7#8#9#0#a#b#c#d#e#f#g#h#i#j#k#l#m#n#o#",
"          |+|+                      p#q#r#s#t#u#v#w#x#y#z#A#B#C#D#E#F#G#H#I#J#K#L#M#N#O#P#Q#R#S#",
"          |+|+                      T#U#V#W#X#Y#Z#`# $.$+$@$#$$$%$&$*$=$-$;$>$,$'$)$!$~${$]$^$  ",
"        |+|+                          /$($_$:$<$[$}$|$1$2$3$4$5$6$7$8$9$0$a$b$c$d$e$f$g$h$i$j$  ",
"        |+|+                          k$l$m$n$o$p$q$r$s$t$u$v$w$x$y$z$A$B$C$D$E$F$G$H$I$J$K$L$  ",
"      |+|+                            M$N$O$P$Q$! R$S$T$U$V$W$X$Y$Z$`$ %.%+%@%#%$%%%&%*%=%-%    ",
"    |+|+|+                              ;%>%,%' '%)%!%~%{%]%^%/%(%_%:%<%[%}%|%1%2%3%4%5%6%7%    ",
"    |+|+|+                                8%9%0%a%b%c%d%e%f%g%h%i%j%k%l%m%n%o%p%q%r%s%t%u%      ",
"  |+|+|+|+|+|+|+|+|+|+                    v%w%x%y%z%A%B%C%D%E%F%G%H%I%J%K%L%M%N%O%P%Q%R%S%      ",
"  |+|+|+|+|+|+|+|+|+|+|+|+|+|+|+|+|+        T%U%V%W%X%Y%Z%`% &.&+&@&#&$&%&&&*&=&-&;&>&,&        ",
"                                              '&)&!&~&{&]&^&/&(&_&:&<&[&}&|&1&2&3&4&5&          ",
"                                                6&7&8&9&0&a&b&c&d&e&f&g&h&i&j&k&l&m&            ",
"                                                    n&o&p&q&!&r&s&t&u&v&w&x&y&z&                ",
"                                                        A&B&C&D&E&F&G&H&I&J&                    ",
"                                                                  K&                            "};
