/* XPM */
static char * icon16_xpm[] = {
"16 16 244 2",
"  	c None",
". 	c #FDFDFE",
"+ 	c #FFFFFF",
"@ 	c #D8DAE7",
"# 	c #858CB4",
"$ 	c #898EB3",
"% 	c #A5A7C1",
"& 	c #AAADC3",
"* 	c #B0B3B8",
"= 	c #959589",
"- 	c #71705A",
"; 	c #5C664E",
"> 	c #757E78",
", 	c #767F7D",
"' 	c #F4F4F9",
") 	c #F7F7FB",
"! 	c #BABDD7",
"~ 	c #8F95BA",
"{ 	c #A7AAC6",
"] 	c #B7B8CD",
"^ 	c #A3A6BC",
"/ 	c #898682",
"( 	c #8C8269",
"_ 	c #767255",
": 	c #585E3D",
"< 	c #67725A",
"[ 	c #A2A8A3",
"} 	c #E7E7F2",
"| 	c #E4E4F1",
"1 	c #E7E7F3",
"2 	c #FEFEFE",
"3 	c #AAADCE",
"4 	c #9095BC",
"5 	c #AEB1CC",
"6 	c #B1B3CB",
"7 	c #A8A9BE",
"8 	c #A9A6A8",
"9 	c #B1A591",
"0 	c #968A6F",
"a 	c #7F7F5E",
"b 	c #8D9782",
"c 	c #888F88",
"d 	c #D7D7EA",
"e 	c #D4D4E9",
"f 	c #E2E2F0",
"g 	c #F2F2F8",
"h 	c #FDFDFD",
"i 	c #A8ACCE",
"j 	c #858AB6",
"k 	c #878AB5",
"l 	c #B1B2CF",
"m 	c #B7B8CA",
"n 	c #BCBCC7",
"o 	c #B3B2AC",
"p 	c #A0977C",
"q 	c #837F6D",
"r 	c #525968",
"s 	c #454B5E",
"t 	c #CACAE4",
"u 	c #CACAE5",
"v 	c #DCDCED",
"w 	c #E5E5F2",
"x 	c #FBFBFC",
"y 	c #C2C6DF",
"z 	c #8388BA",
"A 	c #6A6DA6",
"B 	c #8688B2",
"C 	c #8082A3",
"D 	c #ACAAB9",
"E 	c #A09DA3",
"F 	c #8C8C7D",
"G 	c #7D7D71",
"H 	c #555670",
"I 	c #5B5E77",
"J 	c #C8C8E3",
"K 	c #D2D2E8",
"L 	c #D9D9EB",
"M 	c #E6E6F2",
"N 	c #CED1E7",
"O 	c #8F92C5",
"P 	c #6C70AB",
"Q 	c #696CA0",
"R 	c #70739D",
"S 	c #8788A2",
"T 	c #8F8CA0",
"U 	c #727485",
"V 	c #707579",
"W 	c #858C92",
"X 	c #9EA2AB",
"Y 	c #C7C7E2",
"Z 	c #C6C6E2",
"` 	c #CCCCE5",
" .	c #C0C2E0",
"..	c #7C82BC",
"+.	c #6F74AF",
"@.	c #797CB1",
"#.	c #8485B1",
"$.	c #8789AB",
"%.	c #7C7C9B",
"&.	c #737393",
"*.	c #6E6F90",
"=.	c #696E8E",
"-.	c #82879F",
";.	c #BDBDDE",
">.	c #B7B7DA",
",.	c #B8B8DA",
"'.	c #B0B0D7",
").	c #9A9DCC",
"!.	c #7478B6",
"~.	c #7377B1",
"{.	c #7B7EB1",
"].	c #8285B0",
"^.	c #8D8EB0",
"/.	c #9496B3",
"(.	c #9EA0B9",
"_.	c #9195B1",
":.	c #989CB7",
"<.	c #C6C6E1",
"[.	c #C2C2DF",
"}.	c #B2B3D8",
"|.	c #ABACD5",
"1.	c #9E9FCE",
"2.	c #9E9ECE",
"3.	c #B4B5D9",
"4.	c #8B8EC4",
"5.	c #7277B4",
"6.	c #7477B0",
"7.	c #787CAE",
"8.	c #878CB4",
"9.	c #999DBC",
"0.	c #A7A9C4",
"a.	c #ACAFC8",
"b.	c #BABDD2",
"c.	c #BDC0DB",
"d.	c #B0B3D6",
"e.	c #A7A9D0",
"f.	c #9B9BCA",
"g.	c #888AC3",
"h.	c #9596C8",
"i.	c #A3A3D0",
"j.	c #A6A8D0",
"k.	c #8589C0",
"l.	c #7D82BA",
"m.	c #7C80B6",
"n.	c #8D92BD",
"o.	c #ABAFCD",
"p.	c #ACB1CC",
"q.	c #A9ADCA",
"r.	c #BCC0D5",
"s.	c #ABAFCF",
"t.	c #9FA2CA",
"u.	c #989CC6",
"v.	c #8788C0",
"w.	c #8083BD",
"x.	c #8889C0",
"y.	c #8C8DC3",
"z.	c #979AC9",
"A.	c #A2A4CE",
"B.	c #999CC9",
"C.	c #888CBE",
"D.	c #9096C3",
"E.	c #969CC3",
"F.	c #9297C0",
"G.	c #9A9FC3",
"H.	c #B8BED3",
"I.	c #949CC1",
"J.	c #8E95BE",
"K.	c #7F85B8",
"L.	c #797CB7",
"M.	c #7A7CB7",
"N.	c #777CB8",
"O.	c #8285BD",
"P.	c #9C9FC9",
"Q.	c #A1A6CD",
"R.	c #B0B2D3",
"S.	c #AFB3D3",
"T.	c #B0B4D2",
"U.	c #B4B9D5",
"V.	c #C1C5DD",
"W.	c #D7DCE9",
"X.	c #808BB5",
"Y.	c #7984B2",
"Z.	c #6A71AC",
"`.	c #6E74AF",
" +	c #7075B1",
".+	c #6B6FB0",
"++	c #6A6DAF",
"@+	c #7479B4",
"#+	c #878CBE",
"$+	c #979DC6",
"%+	c #A0A7CB",
"&+	c #AAB0D0",
"*+	c #A6ACCE",
"=+	c #B3B9D5",
"-+	c #C2C9DD",
";+	c #C7CDDF",
">+	c #6978A5",
",+	c #606CA2",
"'+	c #5963A0",
")+	c #646DA8",
"!+	c #646BA8",
"~+	c #5C63A5",
"{+	c #5D64A7",
"]+	c #666DAB",
"^+	c #6F75AF",
"/+	c #888FBC",
"(+	c #8F98C0",
"_+	c #959DC3",
":+	c #9299C2",
"<+	c #A0A8C9",
"[+	c #B0B9D2",
"}+	c #BAC2D5",
"|+	c #546498",
"1+	c #4B5A97",
"2+	c #4B5A98",
"3+	c #5864A0",
"4+	c #555EA0",
"5+	c #555DA0",
"6+	c #555EA2",
"7+	c #5A60A4",
"8+	c #646DA9",
"9+	c #747BAF",
"0+	c #828CB8",
"a+	c #7D86B6",
"b+	c #8891BC",
"c+	c #9099BF",
"d+	c #9EA9C6",
"e+	c #AEBACD",
"f+	c #435592",
"g+	c #405191",
"h+	c #435392",
"i+	c #445293",
"j+	c #414F93",
"k+	c #435095",
"l+	c #455296",
"m+	c #4A5698",
"n+	c #53609D",
"o+	c #57639F",
"p+	c #616EA3",
"q+	c #6471A4",
"r+	c #6E7CA8",
"s+	c #7583AD",
"t+	c #828FB1",
"u+	c #91A0B9",
". + + + + @ # $ % & * = - ; > , ",
"' ) ) + + ! ~ { ] ^ / ( _ : < [ ",
"} | 1 2 . 3 4 5 6 7 8 9 0 a b c ",
"d e f g h i j k l m n o p q r s ",
"t u v w x y z A B C D E F G H I ",
"J J K L M N O P Q R S T U V W X ",
"J J Y Z `  ...+.@.#.$.%.&.*.=.-.",
"J J ;.>.,.'.).!.~.{.].^./.(._.:.",
"<.[.}.|.1.2.3.4.5.6.7.8.9.0.a.b.",
"c.d.e.f.g.h.i.j.k.l.m.n.o.p.q.r.",
"s.t.u.v.w.x.y.z.A.B.C.D.E.F.G.H.",
"I.J.K.L.L.M.N.O.P.Q.R.S.T.U.V.W.",
"X.Y.Z.`. +.+++@+#+$+%+&+*+=+-+;+",
">+,+'+)+!+~+{+]+^+/+(+_+:+<+[+}+",
"|+1+2+3+4+5+6+7+8+9+0+a+b+c+d+e+",
"f+g+h+i+j+k+l+m+n+o+p+q+r+s+t+u+"};
