/* XPM */
static char * sharp16_xpm[] = {
"16 16 132 2",
"  	c None",
". 	c #FFFFFF",
"+ 	c #FBFBFD",
"@ 	c #9393C9",
"# 	c #F9F9FC",
"$ 	c #B9B9DC",
"% 	c #36369A",
"& 	c #B0B0D7",
"* 	c #F7F7FB",
"= 	c #4D4DA6",
"- 	c #333399",
"; 	c #4848A3",
"> 	c #F4F4F9",
", 	c #9A9ACC",
"' 	c #9090C8",
") 	c #E3E3F1",
"! 	c #4040A0",
"~ 	c #343499",
"{ 	c #4C4D9E",
"] 	c #5C5D95",
"^ 	c #9B9DAD",
"/ 	c #C5C6CC",
"( 	c #F7F7F8",
"_ 	c #FEFEFE",
": 	c #7C7CBE",
"< 	c #3D3D9D",
"[ 	c #7176A4",
"} 	c #757990",
"| 	c #787C90",
"1 	c #717486",
"2 	c #474C62",
"3 	c #4D5061",
"4 	c #EAEBF4",
"5 	c #3F3F9F",
"6 	c #7A7FB1",
"7 	c #7B82A7",
"8 	c #9499AC",
"9 	c #83898E",
"0 	c #70737C",
"a 	c #454C62",
"b 	c #4A4E60",
"c 	c #292C45",
"d 	c #CECFD4",
"e 	c #FAFDFD",
"f 	c #DEEFEF",
"g 	c #8B8BC5",
"h 	c #5658A6",
"i 	c #48528C",
"j 	c #7D82A8",
"k 	c #8F94AB",
"l 	c #96988F",
"m 	c #59614D",
"n 	c #6C7472",
"o 	c #404A50",
"p 	c #222748",
"q 	c #494C5F",
"r 	c #B4D9D9",
"s 	c #ECECF5",
"t 	c #676CAB",
"u 	c #60679B",
"v 	c #A2A4BF",
"w 	c #7B7D8B",
"x 	c #807357",
"y 	c #5E603E",
"z 	c #727C68",
"A 	c #8B909A",
"B 	c #404362",
"C 	c #181A39",
"D 	c #EBF5F5",
"E 	c #98CBCB",
"F 	c #747AB1",
"G 	c #585F98",
"H 	c #A3A6C2",
"I 	c #A3A4B7",
"J 	c #A5A092",
"K 	c #837A5B",
"L 	c #495258",
"M 	c #2C344C",
"N 	c #1C1E48",
"O 	c #1C1E42",
"P 	c #7EBFBF",
"Q 	c #D8ECEC",
"R 	c #BCC0DD",
"S 	c #505897",
"T 	c #505487",
"U 	c #666789",
"V 	c #7E7B86",
"W 	c #5C604E",
"X 	c #4F5367",
"Y 	c #34395A",
"Z 	c #3A3E62",
"` 	c #313658",
" .	c #53AAAA",
"..	c #FCFEFE",
"+.	c #D7D9EA",
"@.	c #50599E",
"#.	c #555C94",
"$.	c #5E608D",
"%.	c #484973",
"&.	c #383A64",
"*.	c #394066",
"=.	c #5F6680",
"-.	c #6F7880",
";.	c #545E6B",
">.	c #71B9B9",
",.	c #309898",
"'.	c #5BAEAE",
").	c #7DBEBE",
"!.	c #9FD0D0",
"~.	c #C2E0E0",
"{.	c #8691C2",
"].	c #454E94",
"^.	c #464D8A",
"/.	c #52578A",
"(.	c #70739C",
"_.	c #70759C",
":.	c #8087A3",
"<.	c #586474",
"[.	c #6A969C",
"}.	c #F9FAFC",
"|.	c #9299C7",
"1.	c #515A9E",
"2.	c #5E669F",
"3.	c #7C83B0",
"4.	c #8086B0",
"5.	c #8086AA",
"6.	c #B8BAC6",
"7.	c #D2D5E6",
"8.	c #A9AFD0",
"9.	c #9399BF",
"0.	c #B6BAD2",
"a.	c #EAEBF1",
". . . . . . . . . . . . . . . . ",
". . . . . . . + @ # . . . . . . ",
". . . . . . . $ % & . . . . . . ",
". . . . . . * = - ; > . . . . . ",
". . . . . . , - - - ' . . . . . ",
". . . . . ) ! - ~ { ] ^ / ( . . ",
". . . . _ : - < [ } | 1 2 3 / . ",
". . . . 4 5 % 6 7 8 9 0 a b c d ",
". . . e f g h i j k l m n o p q ",
". . . r e s t u v w x y z A B C ",
". . D E . . F G H I J K L M N O ",
". . P Q . . R S T U V W X Y Z ` ",
". Q  .... . +.@.#.$.%.&.*.=.-.;.",
". >.,.'.).!.~.{.].^./.(._.:.<.[.",
". . . . . . . }.|.1.2.3.4.5.6._ ",
". . . . . . . . _ 7.8.9.0.a.. . "};
