/* XPM */
static char * sharp32_xpm[] = {
"32 32 482 2",
"  	c None",
". 	c #FFFFFF",
"+ 	c #FEFEFE",
"@ 	c #BEBEDF",
"# 	c #B6B6DA",
"$ 	c #FDFDFE",
"% 	c #F1F1F8",
"& 	c #7171B8",
"* 	c #6767B3",
"= 	c #EBEBF5",
"- 	c #FEFEFF",
"; 	c #F5F5FA",
"> 	c #ADADD5",
", 	c #39399C",
"' 	c #37379B",
") 	c #A0A0CF",
"! 	c #F2F2F8",
"~ 	c #D6D6EA",
"{ 	c #6B6BB5",
"] 	c #333399",
"^ 	c #6161B0",
"/ 	c #CDCDE6",
"( 	c #8181C0",
"_ 	c #3C3C9D",
": 	c #7474B9",
"< 	c #FBFBFD",
"[ 	c #E2E2F1",
"} 	c #4444A2",
"| 	c #343499",
"1 	c #3E3E9F",
"2 	c #D7D7EB",
"3 	c #E5E5F2",
"4 	c #7F7FBF",
"5 	c #7272B9",
"6 	c #DDDDEE",
"7 	c #5050A7",
"8 	c #4A4AA4",
"9 	c #A9A9D4",
"0 	c #E7E7F3",
"a 	c #5F5FAF",
"b 	c #36369A",
"c 	c #353599",
"d 	c #3A3A9B",
"e 	c #4B4BA1",
"f 	c #6161A8",
"g 	c #CACBDA",
"h 	c #E6E6E9",
"i 	c #F3F3F4",
"j 	c #FAFAFA",
"k 	c #F8F8FC",
"l 	c #AFAFD7",
"m 	c #3A3A9D",
"n 	c #3A3A9C",
"o 	c #5B5CA5",
"p 	c #696B9E",
"q 	c #6B6D8D",
"r 	c #626482",
"s 	c #64667B",
"t 	c #727483",
"u 	c #858793",
"v 	c #A4A5AE",
"w 	c #E5E5E7",
"x 	c #FBFBFC",
"y 	c #CFCFE8",
"z 	c #5959AC",
"A 	c #5C5DA8",
"B 	c #7477A3",
"C 	c #6B7087",
"D 	c #6A6D86",
"E 	c #76798F",
"F 	c #76798D",
"G 	c #707286",
"H 	c #5F6275",
"I 	c #4A4E64",
"J 	c #3F4256",
"K 	c #46485A",
"L 	c #7D7E8B",
"M 	c #DEDFE2",
"N 	c #FCFCFC",
"O 	c #8D8DC6",
"P 	c #3C3C9E",
"Q 	c #5A5AAB",
"R 	c #7E84A9",
"S 	c #78809C",
"T 	c #7F849B",
"U 	c #818598",
"V 	c #7C8193",
"W 	c #7A7D8F",
"X 	c #818494",
"Y 	c #747788",
"Z 	c #51566D",
"` 	c #434860",
" .	c #3F4257",
"..	c #33374A",
"+.	c #6A6C7B",
"@.	c #D2D3D8",
"#.	c #4646A3",
"$.	c #6667AF",
"%.	c #878DB4",
"&.	c #747DA3",
"*.	c #7982A3",
"=.	c #8C92A8",
"-.	c #979BA9",
";.	c #80868E",
">.	c #7D828A",
",.	c #73757D",
"'.	c #6C6F7E",
").	c #515771",
"!.	c #41465B",
"~.	c #444960",
"{.	c #45495F",
"].	c #262941",
"^.	c #404257",
"/.	c #D8D9DE",
"(.	c #FDFDFD",
"_.	c #F8FBFC",
":.	c #DADDEC",
"<.	c #4F4FA7",
"[.	c #3D3D9E",
"}.	c #7F84B4",
"|.	c #7981AB",
"1.	c #777EA6",
"2.	c #878DB0",
"3.	c #9398B3",
"4.	c #989EAD",
"5.	c #78807F",
"6.	c #979DA0",
"7.	c #898D91",
"8.	c #565C63",
"9.	c #404860",
"0.	c #42495B",
"a.	c #525760",
"b.	c #4C5160",
"c.	c #222744",
"d.	c #1E223C",
"e.	c #777A88",
"f.	c #ECECEE",
"g.	c #FEFFFF",
"h.	c #D5EBEB",
"i.	c #EFF6F7",
"j.	c #A3A3D1",
"k.	c #4242A1",
"l.	c #39399B",
"m.	c #6F71B2",
"n.	c #5A6399",
"o.	c #47518A",
"p.	c #5D6493",
"q.	c #8A8EB0",
"r.	c #767C9E",
"s.	c #8B91A4",
"t.	c #A1A6A3",
"u.	c #A8AAA4",
"v.	c #646C5C",
"w.	c #4E584A",
"x.	c #555E59",
"y.	c #6D7677",
"z.	c #4F5858",
"A.	c #323D4C",
"B.	c #1C2343",
"C.	c #222645",
"D.	c #24263E",
"E.	c #989AA5",
"F.	c #ECF6F6",
"G.	c #BBDEDE",
"H.	c #F8FCFC",
"I.	c #DEDEEF",
"J.	c #6969B4",
"K.	c #4545A1",
"L.	c #6D72AC",
"M.	c #414A88",
"N.	c #404884",
"O.	c #7C81A8",
"P.	c #9296B4",
"Q.	c #9498B2",
"R.	c #A8ACB7",
"S.	c #94968C",
"T.	c #7D7C6A",
"U.	c #5D6147",
"V.	c #555F47",
"W.	c #717A74",
"X.	c #7B8285",
"Y.	c #505B54",
"Z.	c #2D3A48",
"`.	c #1E254A",
" +	c #2A2D4F",
".+	c #161935",
"++	c #545569",
"@+	c #F9F9FA",
"#+	c #EEF6F6",
"$+	c #96CACA",
"%+	c #C3C3E1",
"&+	c #6566AF",
"*+	c #6369A3",
"=+	c #4F5893",
"-+	c #606698",
";+	c #A8ABC6",
">+	c #9396B4",
",+	c #9094AB",
"'+	c #7A7A7C",
")+	c #7F755D",
"!+	c #736B4E",
"~+	c #626041",
"{+	c #4C5433",
"]+	c #515E42",
"^+	c #737D71",
"/+	c #989FA1",
"(+	c #717789",
"_+	c #434767",
":+	c #3F4261",
"<+	c #151738",
"[+	c #1E203B",
"}+	c #C1E0E0",
"|+	c #8AC5C5",
"1+	c #8687BF",
"2+	c #626AA4",
"3+	c #586199",
"4+	c #777CA8",
"5+	c #ABACC6",
"6+	c #A0A2BC",
"7+	c #7A7D9A",
"8+	c #69686A",
"9+	c #8C795C",
"0+	c #847456",
"a+	c #6A6746",
"b+	c #5F633D",
"c+	c #6A7559",
"d+	c #98A092",
"e+	c #A2A7A9",
"f+	c #818495",
"g+	c #4D4F6D",
"h+	c #303355",
"i+	c #16183C",
"j+	c #161836",
"k+	c #BCBDC6",
"l+	c #F0F8F8",
"m+	c #75BABA",
"n+	c #B2D9D9",
"o+	c #A7AACF",
"p+	c #50589A",
"q+	c #515895",
"r+	c #7A7FAC",
"s+	c #A2A5C2",
"t+	c #9FA1BC",
"u+	c #9C9EB5",
"v+	c #A9A9B7",
"w+	c #BCB4A8",
"x+	c #ACA18C",
"y+	c #8D7C5C",
"z+	c #7C7A5A",
"A+	c #717D6C",
"B+	c #667169",
"C+	c #3A4248",
"D+	c #3D405E",
"E+	c #26284F",
"F+	c #161942",
"G+	c #1A1C42",
"H+	c #1A1C3B",
"I+	c #989AA7",
"J+	c #FCFDFD",
"K+	c #61B0B0",
"L+	c #D6EAEA",
"M+	c #C0C2DC",
"N+	c #454D8F",
"O+	c #515991",
"P+	c #9A9CBD",
"Q+	c #B2B4CC",
"R+	c #A3A5BB",
"S+	c #A4A5B5",
"T+	c #A6A6A7",
"U+	c #87866F",
"V+	c #958562",
"W+	c #6F6C55",
"X+	c #2F364C",
"Y+	c #1D2341",
"Z+	c #1F2741",
"`+	c #1B274B",
" @	c #181A46",
".@	c #1C1E49",
"+@	c #20234A",
"@@	c #1B1D3F",
"#@	c #9496A3",
"$@	c #DAEDED",
"%@	c #51A9A9",
"&@	c #9CCECE",
"*@	c #F6FBFB",
"=@	c #DDDFED",
"-@	c #7F86BA",
";@	c #4A5395",
">@	c #394282",
",@	c #6B6F9D",
"'@	c #696B95",
")@	c #5E5F86",
"!@	c #9998AB",
"~@	c #938E98",
"{@	c #747675",
"]@	c #787759",
"^@	c #5D5D51",
"/@	c #292A4D",
"(@	c #2E3151",
"_@	c #242B4B",
":@	c #272F4D",
"<@	c #2B3053",
"[@	c #4A4D6F",
"}@	c #46496B",
"|@	c #212448",
"1@	c #B1B3BE",
"2@	c #9ACCCC",
"3@	c #339A9A",
"4@	c #D2E9E9",
"5@	c #FDFEFE",
"6@	c #EAECF5",
"7@	c #AFB4D9",
"8@	c #7880B6",
"9@	c #444D8E",
"0@	c #39407C",
"a@	c #31356E",
"b@	c #404371",
"c@	c #636382",
"d@	c #817D8E",
"e@	c #6E6B7E",
"f@	c #4B5349",
"g@	c #525B46",
"h@	c #5F666E",
"i@	c #858C91",
"j@	c #575A79",
"k@	c #2D3159",
"l@	c #30335A",
"m@	c #454A6A",
"n@	c #3B4362",
"o@	c #22294A",
"p@	c #CACCD3",
"q@	c #DCEEEE",
"r@	c #349A9A",
"s@	c #61B1B1",
"t@	c #F9FCFC",
"u@	c #F5F5F9",
"v@	c #A0A7CE",
"w@	c #616AAB",
"x@	c #4C538F",
"y@	c #5E6395",
"z@	c #555786",
"A@	c #545580",
"B@	c #504F75",
"C@	c #47486D",
"D@	c #2F305A",
"E@	c #32345A",
"F@	c #373E60",
"G@	c #4B556A",
"H@	c #6F7588",
"I@	c #4F5574",
"J@	c #626B74",
"K@	c #687178",
"L@	c #414B58",
"M@	c #4E5766",
"N@	c #F0F0F2",
"O@	c #F2F9F9",
"P@	c #92C9C9",
"Q@	c #1C8E8E",
"R@	c #FBFDFD",
"S@	c #C9CDE3",
"T@	c #4C57A1",
"U@	c #414B94",
"V@	c #48508F",
"W@	c #63699E",
"X@	c #6A6D9B",
"Y@	c #646792",
"Z@	c #4F507D",
"`@	c #3C3D6C",
" #	c #40426E",
".#	c #41426F",
"+#	c #292E5F",
"@#	c #383F6D",
"##	c #565C7E",
"$#	c #697088",
"%#	c #798186",
"&#	c #7A818D",
"*#	c #4A5462",
"=#	c #808791",
"-#	c #B6DBDB",
";#	c #309898",
">#	c #0A8585",
",#	c #3E9E9E",
"'#	c #67B3B3",
")#	c #7BBEBE",
"!#	c #ACD6D6",
"~#	c #C2E1E1",
"{#	c #E2F0F0",
"]#	c #E9F2F4",
"^#	c #8F98C7",
"/#	c #48539E",
"(#	c #434C94",
"_#	c #495292",
":#	c #4C538D",
"<#	c #50558B",
"[#	c #595D8E",
"}#	c #515686",
"|#	c #74779D",
"1#	c #72749B",
"2#	c #636891",
"3#	c #696E96",
"4#	c #71789D",
"5#	c #848B9F",
"6#	c #7C8593",
"7#	c #626D7E",
"8#	c #475D6A",
"9#	c #A5C0C4",
"0#	c #99CDCD",
"a#	c #46A4A4",
"b#	c #3B9E9E",
"c#	c #3EA0A0",
"d#	c #42A2A2",
"e#	c #47A4A4",
"f#	c #52A9A9",
"g#	c #5BAEAE",
"h#	c #6CB6B6",
"i#	c #93C9C9",
"j#	c #A4D2D2",
"k#	c #BCCEDE",
"l#	c #7A84BD",
"m#	c #414A96",
"n#	c #464F94",
"o#	c #3E4789",
"p#	c #3D4585",
"q#	c #4F558D",
"r#	c #4E5489",
"s#	c #6A6E9A",
"t#	c #70739D",
"u#	c #6D729C",
"v#	c #868BAE",
"w#	c #888FB0",
"x#	c #838BA0",
"y#	c #485665",
"z#	c #3A4758",
"A#	c #629199",
"B#	c #8FC4C5",
"C#	c #E9ECF5",
"D#	c #7982BB",
"E#	c #565FA4",
"F#	c #4B5499",
"G#	c #464E93",
"H#	c #4C5592",
"I#	c #575E97",
"J#	c #7C82AE",
"K#	c #7F84AE",
"L#	c #7F84AD",
"M#	c #9499BC",
"N#	c #9298BA",
"O#	c #777D9F",
"P#	c #71758A",
"Q#	c #B4B7C2",
"R#	c #D8DBEC",
"S#	c #A3A9D1",
"T#	c #5F68AB",
"U#	c #535CA0",
"V#	c #656DA7",
"W#	c #7179AD",
"X#	c #8187B6",
"Y#	c #767EAD",
"Z#	c #6C75A5",
"`#	c #8188B2",
" $	c #7C83AC",
".$	c #7D83A5",
"+$	c #C8C9D4",
"@$	c #F4F4F6",
"#$	c #FCFCFD",
"$$	c #C9CDE2",
"%$	c #9198C2",
"&$	c #7F87BA",
"*$	c #727DB1",
"=$	c #5F67A2",
"-$	c #626BA3",
";$	c #7E85B1",
">$	c #979DBF",
",$	c #BFC3D5",
"'$	c #EDEEF3",
")$	c #F2F3F7",
"!$	c #E0E2EE",
"~$	c #D3D6E6",
"{$	c #C4C7DC",
"]$	c #C7CADD",
"^$	c #DADCE8",
"/$	c #EAEBF2",
". . . . . . . . . . . . . . . . . . . . . . . . . . . . . . . . ",
". . . . . . . . . . . . . . + @ # $ . . . . . . . . . . . . . . ",
". . . . . . . . . . . . . . % & * = - . . . . . . . . . . . . . ",
". . . . . . . . . . . . . ; > , ' ) ! . . . . . . . . . . . . . ",
". . . . . . . . . . . . . ~ { ] ] ^ / . . . . . . . . . . . . . ",
". . . . . . . . . . . . $ ( _ ] ] , : < . . . . . . . . . . . . ",
". . . . . . . . . . . - [ } | ] ] ] 1 2 $ . . . . . . . . . . . ",
". . . . . . . . . . . 3 4 ] ] ] ] ] ] 5 6 . . . . . . . . . . . ",
". . . . . . . . . . . # 7 ] ] ] ] ] ] 8 9 - . . . . . . . . . . ",
". . . . . . . . . - 0 a b ] ] ] ] c d e f g h i j + . . . . . . ",
". . . . . . . . . k l m ] ] ] ] n o p q r s t u v w x . . . . . ",
". . . . . . . . . y z ] ] ] ] A B C D E F G H I J K L M N . . . ",
". . . . . . . . < O P ] ] | Q R S T U V W X Y Z `  ...+.@.+ . . ",
". . . . . . . $ 2 #.| ] ] $.%.&.*.=.-.;.>.,.'.).!.~.{.].^./.(.. ",
". . . . . . . _.:.<.| ] [.}.|.1.2.3.4.5.6.7.8.9.0.a.b.c.d.e.f.. ",
". . . . . . g.h.i.j.k.l.m.n.o.p.q.r.s.t.u.v.w.x.y.z.A.B.C.D.E.+ ",
". . . . . . F.G.H.I.J.K.L.M.N.O.P.Q.R.S.T.U.V.W.X.Y.Z.`. +.+++@+",
". . . . . #+$+F.. < %+&+*+=+-+;+>+,+'+)+!+~+{+]+^+/+(+_+:+<+[+/.",
". . . . . }+|+g.. . % 1+2+3+4+5+6+7+8+9+0+a+b+c+d+e+f+g+h+i+j+k+",
". . . . l+m+n+. . . . o+p+q+r+s+t+u+v+w+x+y+z+A+B+C+D+E+F+G+H+I+",
". . . J+}+K+L+. . . . M+p+N+O+P+Q+R+S+T+U+V+W+X+Y+Z+`+ @.@+@@@#@",
". . . $@%@&@*@. . . . =@-@;@>@,@'@)@!@~@{@]@^@/@(@_@:@<@[@}@|@1@",
". . g.2@3@4@5@. . . . 6@7@8@9@0@a@b@c@d@e@f@g@h@i@j@k@l@m@n@o@p@",
". + q@r@s@t@. . . . . u@v@w@p+x@y@z@A@B@C@D@E@F@G@H@I@J@K@L@M@N@",
". O@P@Q@&@R@g.. . . . J+S@T@U@V@W@X@Y@Z@`@ #.#+#@###$#%#&#*#=#5@",
". -#;#>#,#'#)#2@!#~#4@{#]#^#/#(#_#:#<#[#}#|#1#2#3#4#5#6#7#8#9#. ",
". 0#a#b#c#d#e#f#g#h#)#i#j#k#l#m#n#o#p#q#r#s#t#u#v#w#x#y#z#A#B#. ",
". . . . . . . . . . . . . + C#D#E#F#G#H#I#J#K#L#M#N#O#P#Q#+ . . ",
". . . . . . . . . . . . . . + R#S#T#U#V#W#X#Y#Z#`# $.$+$@$. . . ",
". . . . . . . . . . . . . . . + #$$$%$&$*$=$-$;$>$,$'$+ . . . . ",
". . . . . . . . . . . . . . . . . $ )$!$~${$]$^$/$(.+ . . . . . ",
". . . . . . . . . . . . . . . . . . . . . . . . . . . . . . . . "};
