/* XPM */
static char *afp___[] = {
/* columns rows colors chars-per-pixel */
"16 16 87 1",
"  c #000000",
". c #010101",
"X c #000002",
"o c #010102",
"O c #000003",
"+ c #010104",
"@ c #010105",
"# c #030304",
"$ c #040408",
"% c #0D0D0D",
"& c #050513",
"* c #060614",
"= c #060617",
"- c #080819",
"; c #1A1A1A",
": c #1D1D1D",
"> c #101032",
", c #2B2B2B",
"< c #353537",
"1 c #161649",
"2 c #1C1C57",
"3 c #1E1E5C",
"4 c #2A2A5F",
"5 c #202062",
"6 c #21216C",
"7 c #32326B",
"8 c #272778",
"9 c #292978",
"0 c #34347D",
"q c #474747",
"w c #4E4E56",
"e c #515155",
"r c #595961",
"t c #686868",
"y c #6C6C6C",
"u c #6D6D74",
"i c #2A2A80",
"p c #282883",
"a c #3E3E85",
"s c #2F2F90",
"d c #2F2F91",
"f c #2F2F92",
"g c #303093",
"h c #303095",
"j c #323297",
"k c #323298",
"l c #333399",
"z c #414181",
"x c #424285",
"c c #454584",
"v c #4E4E89",
"b c #555594",
"n c #5D5D95",
"m c #787880",
"M c #616196",
"N c #626298",
"B c #6A6A99",
"V c #89898D",
"C c #8181AB",
"Z c #9595B7",
"A c #B4B4C9",
"S c #B6B6CD",
"D c #B8B8CC",
"F c #BCBCCC",
"G c #C7C7CB",
"H c #C0C0CC",
"J c #C0C0D1",
"K c #C2C2D0",
"L c #CFCFD8",
"P c #D0D0D4",
"I c #D8D8DA",
"U c #D9D9DD",
"Y c #DADADC",
"T c #D8D8DE",
"R c #D9D9DF",
"E c #DCDCDE",
"W c #DCDCE0",
"Q c #E0E0E5",
"! c #E3E3E5",
"~ c #E3E3E8",
"^ c #F2F2F3",
"/ c #F5F5F6",
"( c #F7F7F7",
") c #FDFDFD",
"_ c #FEFEFE",
"` c #FFFFFF",
"' c None",
/* pixels */
"''''''''''''''''",
"''''''''k'''''''",
"'''''''sk'''''''",
"'''''''f3f''''''",
"''''vBn7=k''''''",
"''M~)W!)F7f''''K",
"'N)V *@ I)ZxzC)Y",
"''; h6'' qP^(Yt@",
"'''aFTWD9'@$@ '0",
"''A)GwrP)Sp1''b)",
"'cE:@>2 ,Y(LH!)y",
"''@'' h''*<ume%'",
"''''''>k'8 '''''",
"'''''''ik-''''''",
"'''''''-5'''''''",
"'''''''' '''''''"
};
