/* XPM */
static char *opti_test___[] = {
/* columns rows colors chars-per-pixel */
"64 64 181 2",
"   c #000000",
".  c #000001",
"X  c #000002",
"o  c #000003",
"O  c #000006",
"+  c #000008",
"@  c #000009",
"#  c #00000A",
"$  c #00000B",
"%  c #00000C",
"&  c #00000E",
"*  c #00000F",
"=  c #000010",
"-  c #000011",
";  c #000012",
":  c #000013",
">  c #000014",
",  c #000015",
"<  c #000016",
"1  c #000018",
"2  c #000019",
"3  c #00001A",
"4  c #00001C",
"5  c #00001D",
"6  c #00001E",
"7  c #00001F",
"8  c #000020",
"9  c #000023",
"0  c #000024",
"q  c #000025",
"w  c #000026",
"e  c #000027",
"r  c #000028",
"t  c #000029",
"y  c #00002A",
"u  c #00002B",
"i  c #00002C",
"p  c #00002F",
"a  c #000030",
"s  c #000031",
"d  c #000032",
"f  c #000035",
"g  c #000036",
"h  c #000037",
"j  c #000038",
"k  c #00003A",
"l  c #00003D",
"z  c #00003E",
"x  c #00003F",
"c  c #000040",
"v  c #000041",
"b  c #000042",
"n  c #000043",
"m  c #000044",
"M  c #000045",
"N  c #000048",
"B  c #00004B",
"V  c #00004C",
"C  c #00004D",
"Z  c #00004E",
"A  c #00004F",
"S  c #000050",
"D  c #000052",
"F  c #000053",
"G  c #000054",
"H  c #000055",
"J  c #000056",
"K  c #00005A",
"L  c #00005B",
"P  c #00005C",
"I  c #00005D",
"U  c #00005E",
"Y  c #00005F",
"T  c #000060",
"R  c #000062",
"E  c #000063",
"W  c #000064",
"Q  c #000066",
"!  c #000067",
"~  c #00006B",
"^  c #00006E",
"/  c #00006F",
"(  c #000071",
")  c #000073",
"_  c #000074",
"`  c #000077",
"'  c #000079",
"]  c #00007A",
"[  c #00007B",
"{  c #00007C",
"}  c #00007E",
"|  c #00007F",
" . c #000081",
".. c #000082",
"X. c #000083",
"o. c #000084",
"O. c #000086",
"+. c #000089",
"@. c #00008B",
"#. c #00008C",
"$. c #00008D",
"%. c #00008F",
"&. c #000090",
"*. c #000091",
"=. c #000092",
"-. c #000093",
";. c #000094",
":. c #000095",
">. c #000096",
",. c #000098",
"<. c #000099",
"1. c #00009A",
"2. c #00009C",
"3. c #00009D",
"4. c #00009E",
"5. c #0000A0",
"6. c #0000A2",
"7. c #0000A3",
"8. c #0000A4",
"9. c #0000A5",
"0. c #0000A8",
"q. c #0000A9",
"w. c #0000AA",
"e. c #0000AB",
"r. c #0000AC",
"t. c #0000AD",
"y. c #0000AE",
"u. c #0000AF",
"i. c #0000B0",
"p. c #0000B1",
"a. c #0000B2",
"s. c #0000B3",
"d. c #0000B4",
"f. c #0000B5",
"g. c #0000B6",
"h. c #0000B7",
"j. c #0000B8",
"k. c #0000B9",
"l. c #0000BA",
"z. c #0000BB",
"x. c #0000BC",
"c. c #0000BD",
"v. c #0000BE",
"b. c #0000BF",
"n. c #0000C0",
"m. c #0000C1",
"M. c #0000C2",
"N. c #0000C3",
"B. c #0000C4",
"V. c #0000C5",
"C. c #0000C6",
"Z. c #0000C7",
"A. c #0000C8",
"S. c #0000C9",
"D. c #0000CA",
"F. c #0000CB",
"G. c #0000CC",
"H. c #0000CD",
"J. c #0000CE",
"K. c #0000CF",
"L. c #0000D0",
"P. c #0000D1",
"I. c #0000D2",
"U. c #0000D3",
"Y. c #0000D4",
"T. c #0000D5",
"R. c #0000D6",
"E. c #0000D7",
"W. c #0000D8",
"Q. c #0000D9",
"!. c #0000DA",
"~. c #0000DB",
"^. c #0000DC",
"/. c #0000DD",
"(. c #0000DE",
"). c #0000DF",
"_. c #0000E0",
"`. c #0000E2",
"'. c #0000E3",
"]. c #0000E4",
"[. c None",
/* pixels */
"[.[.[.[.[.[.[.[.[.[.[.[.[.[.[.[.[.[.[.[.[.[.[.[.[.[.[.[.[.[.[.[.[.[.[.[.[.[.[.[.[.[.[.[.[.[.[.[.[.[.[.[.[.[.[.[.[.[.[.[.[.[.[.[.",
"[.[.[.[.[.[.[.[.[.[.[.[.[.[.[.[.[.[.[.[.[.[.[.[.[.[.[.[.[.[.[.[.[.[.[.[.[.[.[.[.[.[.[.[.[.[.[.[.[.[.[.[.[.[.[.[.[.[.[.[.[.[.[.[.",
"[.[.[.[.[.[.[.[.[.[.[.[.[.[.[.[.[.[.[.[.[.[.  z ~ | ) K <   [.[.[.[.[.[.  z / | / S #   [.[.[.[.[.[.[.[.[.[.[.[.[.[.[.[.[.[.[.[.",
"[.[.[.[.[.[.[.[.[.[.[.[.[.[.[.[.[.[.[.[.  ) !.G.F.F.F.F.!.t.5 [.[.[.  ' !.G.F.F.F.G./.1.< [.[.[.[.[.[.[.[.[.[.[.[.[.[.[.[.[.[.[.",
"[.[.[.[.[.[.[.[.[.[.[.[.[.[.[.[.[.[.[.  c.F.G.G.F.F.G.G.G.F.!.M   % Z.F.G.G.G.G.G.G.G.F.!.a [.[.[.[.[.[.[.[.[.[.[.[.[.[.[.[.[.[.",
"[.[.[.[.[.[.[.[.[.[.[.[.[.[.[.[.[.[.  z.F.G.G.G.F.F.G.G.G.G.G.!.w M.F.G.G.G.G.G.G.G.G.G.G.!.1 [.[.[.[.[.[.[.[.[.[.[.[.[.[.[.[.[.",
"[.[.[.[.[.[.[.[.[.[.[.[.[.[.[.[.[.[.A G.G.G.G.G.G.G.G.G.G.G.G.F.Y.F.G.G.G.G.G.G.G.G.G.G.G.G.2.  [.[.[.[.[.[.[.[.[.[.[.[.[.[.[.[.",
"[.[.[.[.[.[.[.[.[.[.[.[.[.[.[.[.[.  :.F.G.G.G.G.G.G.G.G.G.G.G.G.G.F.G.G.G.G.G.G.G.G.G.G.G.F.].  [.[.[.[.[.[.[.[.[.[.[.[.[.[.[.[.",
"[.[.[.[.[.[.[.[.[.[.[.[.[.[.[.[.[.  e.G.G.G.G.G.G.G.G.G.G.G.G.G.G.G.G.G.G.G.G.G.G.G.G.G.G.G.P.i [.[.[.[.[.[.[.[.[.[.[.[.[.[.[.[.",
"[.[.[.[.[.[.[.[.[.[.[.[.[.[.[.[.[.  2.G.G.G.G.G.G.G.G.G.G.G.G.G.G.G.G.G.G.G.G.G.G.G.G.G.G.G.'.  [.[.[.[.[.[.[.[.[.[.[.[.[.[.[.[.",
"[.[.[.[.[.[.[.[.[.[.[.[.[.[.[.[.[.  J G.G.G.G.G.G.G.G.G.G.G.G.G.G.G.G.G.G.G.G.G.G.G.G.G.G.F.t.  [.[.[.[.[.[.[.[.[.[.[.[.[.[.[.[.",
"[.[.[.[.[.[.[.[.[.[.[.[.[.[.[.[.[.[.  M.G.F.G.G.G.G.G.G.G.G.G.G.G.G.G.G.G.G.G.G.G.G.G.G.G./.r [.[.[.[.[.[.[.[.[.[.[.[.[.[.[.[.[.",
"[.[.[.[.[.[.[.[.[.[.[.[.[.[.[.[.[.[.  < F.F.G.G.G.G.G.G.G.G.G.G.G.G.G.G.G.G.G.G.G.G.G.G.!.M   [.[.[.[.[.[.[.[.[.[.[.[.[.[.[.[.[.",
"[.[.[.[.[.[.[.[.[.[.[.[.[.[.[.[.[.[.[.  1 P.G.G.G.G.G.G.G.G.G.G.G.G.G.G.G.G.G.G.G.G.G.P.S   [.[.[.[.[.[.[.[.[.[.[.[.[.[.[.[.[.[.",
"[.[.[.[.[.[.[.[.[.[.[.[.[.[.[.[.[.[.[.[.  i !.G.G.G.G.G.G.G.G.G.G.G.G.G.G.G.G.G.G.F.F.|   [.[.[.[.[.[.[.[.[.[.[.[.[.[.[.[.[.[.[.",
"[.[.[.[.[.[.[.[.[.  A ) ' R < [.[.[.[.[.[.  A P.G.G.G.G.G.G.G.G.G.G.G.G.G.G.G.G.F.F.1.  [.[.[.[.[.[.  M Q Y a   [.[.[.[.[.[.[.[.",
"[.[.[.[.[.[.[.  R Y.G.G.G.G.!.:.  [.[.[.[.[.   .F.F.G.G.G.G.G.G.G.G.G.G.G.G.G.G.F.s.  [.[.[.[.[.  ' !.G.F.G.P.F.k [.[.[.[.[.[.[.",
"[.[.[.[.[.[.  +.G.G.G.G.G.G.F.F.F.w [.[.[.[.[.  2.G.G.G.G.G.G.G.G.G.G.G.G.G.F.G.c.    [.[.[.[.= f.G.G.G.G.G.G.G.Y.R [.[.[.[.[.[.",
"[.[.[.[.[.[.b P.G.G.G.G.G.G.G.G.F.!.`   [.[.[.    f.F.F.G.G.G.G.G.G.G.G.G.G.G.P.=   [.[.[.  J Y.G.G.G.G.G.G.G.G.G.!.i [.[.[.[.[.",
"[.[.[.[.[.  c.G.G.G.G.G.G.G.G.G.F.F.F.z.< [.[.[.    M.F.G.G.G.G.G.G.G.G.G.G.Y.5   [.[.[.O 8.G.G.G.G.G.G.G.G.G.G.G.G.s.  [.[.[.[.",
"[.[.[.[.[.= !.G.G.G.G.G.G.G.G.G.G.G.G.F.Y.Y   [.[.  1 P.G.G.G.G.G.G.G.G.G./.a   [.[.  k P.F.F.G.G.G.G.G.G.G.G.G.G.F./.# [.[.[.[.",
"[.[.[.[.[.f P.G.G.G.G.G.G.G.G.G.G.G.G.F.G.G.t.#   [.  w Y.G.G.G.G.G.G.G.P.S   [.[.  #.Y.F.G.G.G.G.G.G.G.G.G.G.G.G.F.P.a [.[.[.[.",
"[.[.[.[.[.r P.F.G.G.G.G.G.G.G.G.G.G.G.G.G.G.F.P.b   [.  M Y.G.G.G.G.F.F. .  [.  w F.F.G.G.G.G.G.G.G.G.G.G.G.G.G.G.G.P.i [.[.[.[.",
"[.[.[.[.[.  /.G.G.G.G.G.G.G.G.G.G.G.G.G.G.G.G.G.P.:.      ` F.F.G.G.F.1.      ) !.F.G.G.G.G.G.G.G.G.G.G.G.G.G.G.G.F./.  [.[.[.[.",
"[.[.[.[.[.  #.F.F.G.G.G.G.G.G.G.G.G.G.G.G.G.G.G.G.F.G.r     :.F.F.F.f.    1 c.F.G.G.G.G.G.G.G.G.G.G.G.G.G.G.G.G.G.F.1.  [.[.[.[.",
"[.[.[.[.[.[.% P.F.G.G.G.G.G.G.G.G.G.G.G.G.G.G.G.G.G.G.!.|     s.Z.M.    K Y.F.G.G.G.G.G.G.G.G.G.G.G.G.G.G.G.G.F.G.Y.< [.[.[.[.[.",
"[.[.[.[.[.[.  8 G.F.G.G.G.G.G.G.G.G.G.G.G.G.G.G.G.G.G.G.F.c.5   M.1 # e.G.G.G.G.G.G.G.G.G.G.G.G.G.G.G.G.G.G.G.G.!.a   [.[.[.[.[.",
"[.[.[.[.[.[.[.    8.F.G.G.G.G.G.G.G.G.G.G.G.G.G.G.G.G.G.G.F.'.r   i Y.G.G.G.G.G.G.G.G.G.G.G.G.G.G.G.G.G.G.G.G.2.=   [.[.[.[.[.[.",
"[.[.[.[.[.[.[.  2.Y.G.G.G.G.G.G.G.G.G.G.G.G.G.G.G.G.G.G.F.F.a   r   J Y.F.G.G.G.G.G.G.G.G.G.G.G.G.G.G.G.G.G.F.!.|   [.[.[.[.[.[.",
"[.[.[.[.[.[.  f.F.G.G.G.G.G.G.G.G.G.G.G.G.G.G.G.G.F.F.P.2.    O ].    = f.F.G.G.G.G.G.G.G.G.G.G.G.G.G.G.G.G.G.G.F.6.  [.[.[.[.[.",
"[.[.[.[.[.[.Q G.F.G.G.G.G.G.G.G.G.G.G.G.G.G.G.G.G.F.Y.S       ' G.B       ) !.F.F.G.G.G.G.G.G.G.G.G.G.G.G.G.G.G.F.G.S [.[.[.[.[.",
"[.[.[.[.[.  G.G.F.G.G.G.G.G.G.G.G.G.G.G.G.G.F.G.F.s.=   [.[.  Y.F.6.  [.    w Z.F.G.G.G.G.G.G.G.G.G.G.G.G.G.G.G.G.F.Z.  [.[.[.[.",
"[.[.[.[.[.1 Y.G.G.G.G.G.G.G.G.G.G.G.G.G.F.F.F.!./     [.[.  Q F.G.!.= [.[.[.    -.P.F.F.G.G.G.G.G.G.G.G.G.G.G.G.G.G.!.= [.[.[.[.",
"[.[.[.[.[.k P.G.G.G.G.G.G.G.G.G.G.G.G.G.F.F.Z.w   [.[.[.[.  G.G.G.F. .  [.[.[.    b P.F.G.G.G.G.G.G.G.G.G.G.G.G.G.G.G.k [.[.[.[.",
"[.[.[.[.[.5 P.G.G.G.G.G.G.G.G.G.G.G.F.F.P.-.    [.[.[.[.[.J G.F.G.G.Y.  [.[.[.[.    # t.G.G.G.G.G.G.G.G.G.G.G.G.G.F.P.8 [.[.[.[.",
"[.[.[.[.[.  Y.G.G.G.G.G.G.G.G.G.G.G.F.P.z   [.[.[.[.[.[.  F.G.G.G.G.G.J [.[.[.[.[.[.    R Y.F.G.G.G.G.G.G.G.G.G.G.G.!.  [.[.[.[.",
"[.[.[.[.[.  ) F.G.F.G.G.G.G.G.G.G.G.e.#   [.[.[.[.[.[.[.B G.G.G.G.G.G.M.  [.[.[.[.[.[.    5 c.F.G.G.F.G.G.G.G.G.F.F. .  [.[.[.[.",
"[.[.[.[.[.[.  z.F.F.G.G.G.G.F.F.Y.R     [.[.[.[.[.[.[.  M.G.G.G.G.G.G.P.k [.[.[.[.[.[.[.[.    o.Y.F.F.F.G.G.G.G.F.F.  [.[.[.[.[.",
"[.[.[.[.[.[.    t.G.F.G.F.G.G.G.w   [.[.[.[.[.[.[.[.[.z G.G.G.G.G.G.G.F.-.  [.[.[.[.[.[.[.[.    z !.F.F.G.F.F.F.M.=   [.[.[.[.[.",
"[.[.[.[.[.[.[.    b -.M.F.e.Y     [.[.[.[.[.[.[.[.[.  t.G.G.G.G.G.G.G.G./.# [.[.[.[.[.[.[.[.[.    % | F./.'.s.K     [.[.[.[.[.[.",
"[.[.[.[.[.[.[.[.              [.[.[.[.[.[.[.[.[.[.[.i Y.G.G.G.G.G.G.G.G.G.' [.[.[.[.[.[.[.[.[.[.[.              [.[.[.[.[.[.[.[.",
"[.[.[.[.[.[.[.[.[.[.[.[.[.[.[.[.[.[.[.[.[.[.[.[.[.  2.G.G.G.G.G.G.G.G.G.G.P.  [.[.[.[.[.[.[.[.[.[.[.[.      [.[.[.[.[.[.[.[.[.[.",
"[.[.[.[.[.[.[.[.[.[.[.[.[.[.[.[.[.[.[.[.[.[.[.[.[.1 !.G.G.G.G.G.G.G.G.G.G.G.S [.[.[.[.[.[.[.[.[.[.[.[.[.[.[.[.[.[.[.[.[.[.[.[.[.",
"[.[.[.[.[.[.[.[.[.[.[.[.[.[.[.[.[.[.[.[.[.[.[.[.  +.F.G.G.G.G.G.G.G.G.G.G.G.z.  [.[.[.[.[.[.[.[.[.[.[.[.[.[.[.[.[.[.[.[.[.[.[.[.",
"[.[.[.[.[.[.[.[.[.[.[.[.[.[.[.[.[.[.[.[.[.[.[.[.% /.G.G.G.G.G.G.G.G.F.F.G.G.P.r [.[.[.[.[.[.[.[.[.[.[.[.[.[.[.[.[.[.[.[.[.[.[.[.",
"[.[.[.[.[.[.[.[.[.[.[.[.[.[.[.[.[.[.[.[.[.[.[.   .G.G.F.F.F.F.G.F.F.F.F.F.F.F.+.  [.[.[.[.[.[.[.[.[.[.[.[.[.[.[.[.[.[.[.[.[.[.[.",
"[.[.[.[.[.[.[.[.[.[.[.[.[.[.[.[.[.[.[.[.[.[.[.  2.-.#.-.-.#.-.#.-.-.#.-.-.-.#.6.  [.[.[.[.[.[.[.[.[.[.[.[.[.[.[.[.[.[.[.[.[.[.[.",
"[.[.[.[.[.[.[.[.[.[.[.[.[.[.[.[.[.[.[.[.[.[.[.                                    [.[.[.[.[.[.[.[.[.[.[.[.[.[.[.[.[.[.[.[.[.[.[.",
"[.[.[.[.[.[.[.[.[.[.[.[.[.[.[.[.[.[.[.[.[.[.[.[.[.[.[.[.[.[.[.[.[.[.[.[.[.[.[.[.[.[.[.[.[.[.[.[.[.[.[.[.[.[.[.[.[.[.[.[.[.[.[.[.",
"[.[.[.[.[.[.[.[.[.[.[.[.[.[.[.[.[.[.[.[.[.[.[.[.[.[.[.[.[.[.[.[.[.[.[.[.[.[.[.[.[.[.[.[.[.[.[.[.[.[.[.[.[.[.[.[.[.[.[.[.[.[.[.[.",
"[.[.[.[.[.[.[.[.[.[.[.[.[.[.[.[.[.[.[.[.[.[.[.[.[.[.[.[.[.Z.[.[.[.[.[.[.[.[.[.[.[.[.[.[.[.[.[.[.[.[.[.[.[.[.[.[.[.[.[.[.[.[.[.[.",
"[.[.[.[.[.[.[.[.[.[.[.[.[.[.[.[.[.[.[.[.[.[.[.[.G.[.[.[.[.z.[.[.[.[.[.[.[.G.[.[.[.[.[.[.[.[.[.[.[.[.[.[.[.[.[.[.F.[.[.[.[.[.[.[.",
"[.[.[.[.[.[.[.[.[.[.[.[.[.[.[.[.[.[.[.[.[.[.[.[.F.[.[.[.[.[.[.[.[.[.[.[.[.G.[.[.[.[.[.[.[.[.[.[.[.[.[.[.[.[.[.[.Z.[.[.[.[.[.[.[.",
"[.[.[.[.[.[.[.[.[.F.z.M.F.[.[.[.F.s.z.M.F.[.[.F.F.F.G.o.[.G.[.[.[.[.[.[.F.F.F.F.[.[.1.F.t.F.F.[.[.[.F.s.s.F.[.s.F.F.F.F.[.[.[.[.",
"[.[.[.[.[.[.[.[.F.+.[.[.t.Z.[.[.F.-.[.[.f.M.[.[.F.[.[.[.[.F.[.[.[.[.[.[.[.F.[.[.[.[.F.[.[.[.c.e.[.z.K [.[.[.[.[.z.Q [.[.[.[.[.[.",
"[.[.[.[.[.[.[.[.F.[.[.[.[.F.[.[.F.[.[.[.[.F.[.[.F.[.[.[.[.G.[.[.[.[.[.[.[.F.[.[.[.2.F.-.#.+.e.G.[.s.c.:.[.[.[.[.M.[.[.[.[.[.[.[.",
"[.[.[.[.[.[.[.S F.[.[.[.[.F.[.[.F.[.[.[.[.F.[.[.F.[.[.[.[.G.[.[.G.G.G.[.[.G.[.[.[.c.M.2.1.:.1.2.[.[.1.c.G.c.[.[.M.[.[.[.[.[.[.[.",
"[.[.[.[.[.[.[.[.F.[.[.[.Q F.[.[.F.[.[.[.[.Z.[.[.F.[.[.[.[.G.[.[.[.[.[.[.[.F.[.[.[.-.F.[.[.[.[.[.[.[.[.[.[.F.' [.Z.[.[.[.[.[.[.[.",
"[.[.[.[.[.[.[.[.c.Z.[.[.c.f.[.[.F.Z.[.[.M.s.[.[.F.[.[.[.[.F.[.[.[.[.[.[.[.G.[.[.[.[.G.t.[.[.[.[.[.-.[.[.[.Z.) [.c.Z.[.[.[.[.[.[.",
"[.[.[.[.[.[.[.[.[.c.F.F.t.[.[.[.F.[.F.F.s.[.[.[.6.F.F.-.[.F.[.[.[.[.[.[.[.2.F.F.[.[.[.c.F.F.F.#.[.6.F.F.F.e.[.[.[.M.F.F.[.[.[.[.",
"[.[.[.[.[.[.[.[.[.[.[.[.[.[.[.[.F.[.[.[.[.[.[.[.[.[.[.[.[.[.[.[.[.[.[.[.[.[.[.[.[.[.[.[.[.[.[.[.[.[.[.[.[.[.[.[.[.[.[.[.[.[.[.[.",
"[.[.[.[.[.[.[.[.[.[.[.[.[.[.[.[.F.[.[.[.[.[.[.[.[.[.[.[.[.[.[.[.[.[.[.[.[.[.[.[.[.[.[.[.[.[.[.[.[.[.[.[.[.[.[.[.[.[.[.[.[.[.[.[.",
"[.[.[.[.[.[.[.[.[.[.[.[.[.[.[.[.f.[.[.[.[.[.[.[.[.[.[.[.[.[.[.[.[.[.[.[.[.[.[.[.[.[.[.[.[.[.[.[.[.[.[.[.[.[.[.[.[.[.[.[.[.[.[.[.",
"[.[.[.[.[.[.[.[.[.[.[.[.[.[.[.[.[.[.[.[.[.[.[.[.[.[.[.[.[.[.[.[.[.[.[.[.[.[.[.[.[.[.[.[.[.[.[.[.[.[.[.[.[.[.[.[.[.[.[.[.[.[.[.[."
};
