/* XPM */
static char *opti_test___[] = {
/* columns rows colors chars-per-pixel */
"32 32 124 2",
"   c #000000",
".  c #000005",
"X  c #000007",
"o  c #000008",
"O  c #00000A",
"+  c #000012",
"@  c #00001A",
"#  c #000020",
"$  c #000022",
"%  c #000023",
"&  c #000024",
"*  c #000026",
"=  c #000027",
"-  c #00002D",
";  c #00002E",
":  c #00002F",
">  c #00003C",
",  c #00003D",
"<  c #000042",
"1  c #000043",
"2  c #000044",
"3  c #000045",
"4  c #000046",
"5  c #000047",
"6  c #000048",
"7  c #000049",
"8  c #00004A",
"9  c #00004D",
"0  c #00004F",
"q  c #000053",
"w  c #000054",
"e  c #000058",
"r  c #000059",
"t  c #00005E",
"y  c #000060",
"u  c #000062",
"i  c #000064",
"p  c #000065",
"a  c #000067",
"s  c #000069",
"d  c #00006C",
"f  c #00006F",
"g  c #000070",
"h  c #000072",
"j  c #000078",
"k  c #000079",
"l  c #00007B",
"z  c #00007F",
"x  c #000082",
"c  c #000083",
"v  c #000084",
"b  c #000085",
"n  c #000086",
"m  c #000087",
"M  c #000088",
"N  c #00008A",
"B  c #00008B",
"V  c #00008E",
"C  c #00008F",
"Z  c #000090",
"A  c #000091",
"S  c #000092",
"D  c #000095",
"F  c #000096",
"G  c #000099",
"H  c #00009B",
"J  c #00009C",
"K  c #00009D",
"L  c #00009F",
"P  c #0000A0",
"I  c #0000A1",
"U  c #0000A2",
"Y  c #0000A3",
"T  c #0000A5",
"R  c #0000A7",
"E  c #0000AA",
"W  c #0000AB",
"Q  c #0000AC",
"!  c #0000AD",
"~  c #0000AE",
"^  c #0000AF",
"/  c #0000B0",
"(  c #0000B1",
")  c #0000B3",
"_  c #0000B6",
"`  c #0000B7",
"'  c #0000B9",
"]  c #0000BA",
"[  c #0000BB",
"{  c #0000BC",
"}  c #0000BD",
"|  c #0000BF",
" . c #0000C0",
".. c #0000C1",
"X. c #0000C2",
"o. c #0000C3",
"O. c #0000C4",
"+. c #0000C5",
"@. c #0000C6",
"#. c #0000C7",
"$. c #0000C8",
"%. c #0000C9",
"&. c #0000CA",
"*. c #0000CB",
"=. c #0000CC",
"-. c #0000CD",
";. c #0000CE",
":. c #0000CF",
">. c #0000D0",
",. c #0000D1",
"<. c #0000D2",
"1. c #0000D4",
"2. c #0000D5",
"3. c #0000D6",
"4. c #0000DA",
"5. c #0000DD",
"6. c #0000DE",
"7. c #0000DF",
"8. c #0000E1",
"9. c #0000E2",
"0. c #0000E5",
"q. c #0000E6",
"w. c #0000EA",
"e. c None",
/* pixels */
"e.e.e.e.e.e.e.e.e.e.e.e.e.e.e.e.e.e.e.e.e.e.e.e.e.e.e.e.e.e.e.e.",
"e.e.e.e.e.e.e.e.e.e.e.e.4 7 e.e.e.e.e.7 7 e.e.e.e.e.e.e.e.e.e.e.",
"e.e.e.e.e.e.e.e.e.e.K } ..O.} v   p } ....} ) e.e.e.e.e.e.e.e.e.",
"e.e.e.e.e.e.e.e.e.z =.&.=.=.=.9.p 5.&.=.=.=.O.F e.e.e.e.e.e.e.e.",
"e.e.e.e.e.e.e.e.e.K &.&.&.=.&.&.=.=.&.=.=.=.=.^ e.e.e.e.e.e.e.e.",
"e.e.e.e.e.e.e.e.e.A &.&.=.=.=.=.=.=.=.=.&.=.&.T e.e.e.e.e.e.e.e.",
"e.e.e.e.e.e.e.e.e.o 0.&.=.&.=.=.=.=.=.=.=.&.w.; e.e.e.e.e.e.e.e.",
"e.e.e.e.e.e.e.e.e.e.. ..&.&.=.=.=.=.=.&.&.O.; e.e.e.e.e.e.e.e.e.",
"e.e.e.e.g ..} ^   e.e.7 1.&.&.=.=.=.&.&.=.p e.e.  K ] ..0 e.e.e.",
"e.e.e.M 4.&.&.=.=.w e.e.e O.&.=.=.=.&.&.g e.e.4 } <.=.&.0.l e.e.",
"e.e.# ` &.=.&.&.&.&.` . e.d &.&.=.&.&.l e.  ^ O.&.=.&.&.&.` e.e.",
"e.e.= ] =.&.&.=.&.&.=.T 0   l <.=.<.M   4 U =.&.=.&.&.=.&.] e.e.",
"e.e.+ E &.=.=.=.=.&.&.&.&.v   v &.A   g &.&.&.=.=.=.=.&.=.^ e.e.",
"e.e.e.1 G &.=.=.=.=.=.&.&.4.^ 7 C 7 K 5.=.=.&.&.=.=.&.&.U 0 e.e.",
"e.e.e.  ) =.=.=.=.=.&.&.&.&.&.0 = t &.=.&.&.=.=.=.=.=.<.G   e.e.",
"e.e.e.T =.&.&.=.=.=.=.&.<.F , + 0.  7 K <.&.=.&.=.=.=.&.<.K e.e.",
"e.e.# ] &.=.=.=.=.&.&.5.u   e.g &.u e.  v 1.=.=.=.=.=.&.=.] e.e.",
"e.e.= } =.=.=.&.&.9.A ; e.e.  ) &.C e.e.  , K 5.=.=.=.=.&.] e.e.",
"e.e.o K =.&.&.&.&.e   e.e.e.w 1.=.1.o e.e.e.  s &.&.&.&.&.U e.e.",
"e.e.e.# v ..<.A 1 e.e.e.e.@ 1.&.=.<.K e.e.e.e.  7 K 5.1.M ; e.e.",
"e.e.e.e.        e.e.e.e.e.d &.&.=.=.=.0 e.e.e.e.        e.e.e.e.",
"e.e.e.e.e.e.e.e.e.e.e.e.e.U =.=.=.&.&.x e.e.e.e.e.e.e.e.e.e.e.e.",
"e.e.e.e.e.e.e.e.e.e.e.e.= 9.&.&.&.&.&.U e.e.e.e.e.e.e.e.e.e.e.e.",
"e.e.e.e.e.e.e.e.e.e.e.e.u u t u u t u p . e.e.e.e.e.e.e.e.e.e.e.",
"e.e.e.e.e.e.e.e.e.e.e.e.e.e.e.e.e.e.e.e.e.e.e.e.e.e.e.e.e.e.e.e.",
"e.e.e.e.e.e.e.e.e.e.=.e.e.=.e.e.e.e.=.e.e.e.e.e.e.e.e.e.e.=.e.e.",
"e.e.e.&.K e.=...E e.=.=.e.=.e.e.e.e.=.=.e.G &...e.^ &.&.e.=.=.e.",
"e.e.=.e.O.e.=.e.&.e.=.e.e.=.e.=.=.e.=.e.e.O.=.=.e.....C e.=.e.e.",
"e.e.&.e.&.e.=.e.&.e.=.e.e.=.e.e.e.e.=.e.e.O.e.e.e.e.l &.e.&.e.e.",
"e.e.&.&.A e.&.] U e.` &.e.=.e.e.e.e.) =.e.v &.=.e.&.&.` e.] =.e.",
"e.e.e.e.e.e.=.e.e.e.e.e.e.e.e.e.e.e.e.e.e.e.e.e.e.e.e.e.e.e.e.e.",
"e.e.e.e.e.e.e.e.e.e.e.e.e.e.e.e.e.e.e.e.e.e.e.e.e.e.e.e.e.e.e.e."
};
