/* XPM */
static char *opti_test___[] = {
/* columns rows colors chars-per-pixel */
"16 16 74 1",
"  c #000008",
". c #000010",
"X c #000017",
"o c #000020",
"O c #000024",
"+ c #000036",
"@ c #000038",
"# c #00003D",
"$ c #000040",
"% c #000043",
"& c #00004A",
"* c #000051",
"= c #000052",
"- c #00005B",
"; c #00005C",
": c #000062",
"> c #000064",
", c #000068",
"< c #000069",
"1 c #00006D",
"2 c #000070",
"3 c #000071",
"4 c #000076",
"5 c #000077",
"6 c #000078",
"7 c #00007B",
"8 c #00007C",
"9 c #00007E",
"0 c #000080",
"q c #000082",
"w c #000084",
"e c #000085",
"r c #000087",
"t c #000089",
"y c #00008A",
"u c #00008C",
"i c #00008D",
"p c #00008F",
"a c #000093",
"s c #000097",
"d c #000099",
"f c #00009A",
"g c #00009C",
"h c #00009E",
"j c #00009F",
"k c #0000A0",
"l c #0000A2",
"z c #0000A6",
"x c #0000A7",
"c c #0000AC",
"v c #0000AD",
"b c #0000B2",
"n c #0000B3",
"m c #0000B5",
"M c #0000B6",
"N c #0000B9",
"B c #0000BE",
"V c #0000C0",
"C c #0000C2",
"Z c #0000C8",
"A c #0000C9",
"S c #0000CA",
"D c #0000CB",
"F c #0000CC",
"G c #0000CD",
"H c #0000CE",
"J c #0000D0",
"K c #0000D1",
"L c #0000D2",
"P c #0000D3",
"I c #0000DC",
"U c #0000E5",
"Y c #0000E9",
"T c None",
/* pixels */
"TTTTTTTTTTTTTTTT",
"TTTTT2rrT8yaTTTT",
"TTTT@KFDiDDFTTTT",
"TTTTOIDFDFDITTTT",
"TTT>T.KDFFK@T;TT",
"T-IDCT*DFF1XmFU1",
"T4DDDD*2F0&DDDFg",
"TTvDFFDcrfFDDDbT",
"T<FFFDD+Y#FDDDKy",
"T6FFK0T DTTiKDFg",
"TTgC$TTKDsTT$FxT",
"TTTTTTXFDFTTTTTT",
"TTTTTT:666XTTTTT",
"TTTTTDTbTmTTTTTF",
"TNllxgTgDfTBTg1C",
"TTyl8TT<TT<0TgTC"
};
